<?xml version="1.0" encoding="UTF-8"?>
<svg width="197px" height="36px" viewBox="0 0 197 36" version="1.1" xmlns="http://www.w3.org/2000/svg" xmlns:xlink="http://www.w3.org/1999/xlink">
    <!-- Generator: Sketch 46.2 (44496) - http://www.bohemiancoding.com/sketch -->
    <title>logo</title>
    <desc>Created with Sketch.</desc>
    <defs></defs>
    <g id="Grid-Dynamic-Talk-In-UA" stroke="none" stroke-width="1" fill="none" fill-rule="evenodd">
        <g id="DynamicTalks-In-UA" transform="translate(-132.000000, -53.000000)" fill="#000000">
            <g id="1st" transform="translate(130.000000, 0.000000)">
                <g id="logo" transform="translate(2.000000, 53.000000)">
                    <path d="M55.5003548,27.5145488 C56.2049113,27.5145488 56.8226504,27.4492465 57.3460591,27.3219907 C57.8677983,27.1938977 58.3669983,27.0172465 58.8428243,26.7903628 L58.8428243,23.7194791 L56.7333287,23.7194791 C56.5321461,23.7194791 56.371033,23.663386 56.2566678,23.5528744 C56.1397983,23.4365023 56.0805287,23.2992 56.0805287,23.1359442 L56.0805287,21.3577116 L61.6860939,21.3577116 L61.6860939,28.1918512 C61.2561809,28.5058047 60.8120765,28.7737116 60.3521113,29.0056186 C59.8896417,29.2333395 59.39712,29.4275721 58.8720417,29.5715721 C58.3469635,29.7189209 57.7826504,29.8319442 57.18912,29.9047814 C56.5930852,29.9784558 55.9469635,30.0144558 55.2524243,30.0144558 C54.0261287,30.0144558 52.8983374,29.8018047 51.8648765,29.3739907 C50.8305809,28.9436651 49.9373635,28.3500837 49.1810504,27.5832 C48.4305809,26.8246884 47.8437287,25.9104558 47.4196591,24.8522233 C46.9955896,23.7965023 46.7860591,22.6369674 46.7860591,21.3828279 C46.7860591,20.1119442 46.9930852,18.9448744 47.4037983,17.8883163 C47.8145113,16.8267349 48.3980243,15.9158512 49.1576765,15.1539907 C49.9114852,14.3904558 50.8305809,13.7985488 51.9099548,13.3782698 C52.9893287,12.9563163 54.2039374,12.747014 55.5429287,12.747014 C56.9186504,12.747014 58.1090504,12.9529674 59.116633,13.3623628 C60.1225461,13.7709209 60.9723548,14.3025488 61.6719026,14.9564093 L60.7636591,16.3805023 C60.58752,16.6685023 60.3521113,16.8125023 60.0524243,16.8125023 C59.8637635,16.8125023 59.677607,16.7522233 59.4847722,16.6258047 C59.2343374,16.4767814 58.9797287,16.3319442 58.7217809,16.1845953 C58.4613287,16.0338977 58.1741635,15.9066419 57.8544417,15.7969674 C57.5447374,15.687293 57.18912,15.5977116 56.7984417,15.527386 C56.4069287,15.4570605 55.9553113,15.4260837 55.4385809,15.4260837 C54.6071374,15.4260837 53.8566678,15.563386 53.183833,15.8446884 C52.5135026,16.1226419 51.9425113,16.5228279 51.4700243,17.0477581 C50.9941983,17.5693395 50.6285635,18.1938977 50.3706157,18.9264558 C50.1168417,19.659014 49.98912,20.4769674 49.98912,21.3828279 C49.98912,22.3556651 50.1268591,23.2238512 50.3973287,23.9857116 C50.6677983,24.7383628 51.0492939,25.3838512 51.5384765,25.9037581 C52.0309983,26.4253395 52.6111722,26.8246884 53.2848417,27.1009674 C53.9610157,27.3772465 54.7014678,27.5145488 55.5003548,27.5145488 Z" id="Fill-1"></path>
                    <path d="M64.2785948,29.8283442 L64.2785948,17.8428558 L65.96736,17.8428558 C66.2612035,17.8428558 66.46656,17.8964372 66.5842643,18.0061116 C66.7011339,18.1141116 66.7796035,18.3016465 66.8188383,18.5653674 L66.9916383,20.0170884 C67.419047,19.2761581 67.9207513,18.6892744 68.4917426,18.2614605 C69.0685774,17.8328093 69.7146991,17.6184837 70.4284383,17.6184837 C71.0186296,17.6184837 71.5061426,17.755786 71.8993252,18.0270419 L71.5228383,20.1903907 C71.4977948,20.3310419 71.4493774,20.4273209 71.374247,20.4884372 C71.2924383,20.5470419 71.1914296,20.5729953 71.0578643,20.5729953 C70.94016,20.5729953 70.7807165,20.5487163 70.5820383,20.4951349 C70.3766817,20.4373674 70.1103861,20.4130884 69.776473,20.4130884 C69.1796035,20.4130884 68.6678817,20.5780186 68.2388035,20.9070419 C67.8097252,21.2385767 67.4516035,21.7241581 67.1544209,22.363786 L67.1544209,29.8283442 L64.2785948,29.8283442 Z" id="Fill-3"></path>
                    <path d="M73.4349913,29.8286791 L76.3141565,29.8286791 L76.3141565,17.8431907 L73.4349913,17.8431907 L73.4349913,29.8286791 Z M76.7415652,14.3478419 C76.7415652,14.5981674 76.6939826,14.8317488 76.5929739,15.0510977 C76.4919652,15.2670977 76.3600696,15.4571442 76.1939478,15.6237488 C76.024487,15.7853302 75.8266435,15.9159349 75.6054261,16.0147256 C75.3783652,16.1110047 75.137113,16.1595628 74.88,16.1595628 C74.6320696,16.1595628 74.3983304,16.1110047 74.177113,16.0147256 C73.9550609,15.9159349 73.7613913,15.7853302 73.5994435,15.6237488 C73.4349913,15.4571442 73.3097739,15.2670977 73.2104348,15.0510977 C73.1119304,14.8317488 73.063513,14.5981674 73.063513,14.3478419 C73.063513,14.0899814 73.1119304,13.8497023 73.2104348,13.6286791 C73.3097739,13.3984465 73.4349913,13.2033767 73.5994435,13.0384465 C73.7613913,12.8751907 73.9550609,12.7437488 74.177113,12.6457953 C74.3983304,12.5478419 74.6320696,12.5034698 74.88,12.5034698 C75.137113,12.5034698 75.3783652,12.5478419 75.6054261,12.6457953 C75.8266435,12.7437488 76.024487,12.8751907 76.1939478,13.0384465 C76.3600696,13.2033767 76.4919652,13.3984465 76.5929739,13.6286791 C76.6939826,13.8497023 76.7415652,14.0899814 76.7415652,14.3478419 L76.7415652,14.3478419 Z" id="Fill-5"></path>
                    <path d="M83.7589983,27.7140558 C84.3558678,27.7140558 84.8642504,27.5918233 85.2816417,27.3398233 C85.7023722,27.0928465 86.0972243,26.7395442 86.4720417,26.274893 L86.4720417,20.9033581 C86.1456417,20.5065209 85.7908591,20.2235442 85.4043548,20.0611256 C85.0211896,19.8961953 84.6054678,19.8158233 84.1596939,19.8158233 C83.7264417,19.8158233 83.3349287,19.8961953 82.9826504,20.0611256 C82.6278678,20.2235442 82.3306852,20.4705209 82.0827548,20.8020558 C81.8381635,21.1377767 81.6528417,21.554707 81.5184417,22.0662419 C81.3898852,22.5761023 81.3197635,23.1763814 81.3197635,23.8712651 C81.3197635,24.5728465 81.3781983,25.1647535 81.4892243,25.6503349 C81.6035896,26.142614 81.7647026,26.5352651 81.9717287,26.8425209 C82.1804243,27.1514512 82.4383722,27.3741488 82.7413983,27.5097767 C83.0452591,27.6437302 83.3841809,27.7140558 83.7589983,27.7140558 L83.7589983,27.7140558 Z M87.5906504,29.8280093 C87.215833,29.8280093 86.9745809,29.6563814 86.8568765,29.3014047 L86.6189635,28.1460558 C86.371033,28.4240093 86.1130852,28.6818698 85.8392765,28.9062419 C85.568807,29.1297767 85.2749635,29.3248465 84.9652591,29.4881023 C84.6488765,29.6563814 84.3066157,29.7794512 83.9484939,29.8723814 C83.5895374,29.9594512 83.1980243,30.0013116 82.7772939,30.0013116 C82.1253287,30.0013116 81.5267896,29.8690326 80.9825113,29.5977767 C80.4390678,29.3248465 79.96992,28.9254977 79.578407,28.410614 C79.1868939,27.890707 78.8838678,27.2527535 78.671833,26.4858698 C78.4564591,25.7240093 78.349607,24.8524744 78.349607,23.8712651 C78.349607,22.9821488 78.4698157,22.1574977 78.7110678,21.3973116 C78.95232,20.6321023 79.2962504,19.9681953 79.7478678,19.410614 C80.1944765,18.8463349 80.7395896,18.4068 81.3656765,18.0911721 C81.9951026,17.7805674 82.7004939,17.6181488 83.4885287,17.6181488 C84.1571896,17.6181488 84.7273461,17.7278233 85.1973287,17.9388 C85.6731548,18.1564744 86.0972243,18.4411256 86.4720417,18.7994512 L86.4720417,12.4676372 L89.3445287,12.4676372 L89.3445287,29.8280093 L87.5906504,29.8280093 Z" id="Fill-7"></path>
                    <path d="M110.05465,21.3793953 C110.05465,20.4526047 109.931103,19.6195814 109.679833,18.8836744 C109.435242,18.1502791 109.079624,17.5265581 108.619659,17.0150233 C108.163033,16.5051628 107.607068,16.1125116 106.950094,15.8446047 C106.29145,15.5716744 105.554337,15.4335349 104.729572,15.4335349 L101.455555,15.4335349 L101.455555,27.3269302 L104.729572,27.3269302 C105.554337,27.3269302 106.29145,27.1904651 106.950094,26.9192093 C107.607068,26.6446047 108.163033,26.2519535 108.619659,25.742093 C109.079624,25.2364186 109.435242,24.6085116 109.679833,23.8734419 C109.931103,23.1383721 110.05465,22.306186 110.05465,21.3793953 M113.255207,21.3793953 C113.255207,22.6184651 113.048181,23.7553953 112.640807,24.7918605 C112.229259,25.8266512 111.649085,26.7216279 110.906963,27.4667442 C110.160668,28.2177209 109.262442,28.7962326 108.212285,29.2081395 C107.162129,29.6208837 106.001781,29.8285116 104.729572,29.8285116 L98.3009113,29.8285116 L98.3009113,12.9353023 L104.729572,12.9353023 C106.001781,12.9353023 107.162129,13.1429302 108.212285,13.558186 C109.262442,13.9767907 110.160668,14.5561395 110.906963,15.2995814 C111.649085,16.0438605 112.229259,16.9346512 112.640807,17.9669302 C113.048181,19.0050698 113.255207,20.1411628 113.255207,21.3793953" id="Fill-8"></path>
                    <path d="M119.677523,33.1215907 C119.592376,33.3258698 119.478845,33.4782419 119.341941,33.5845674 C119.20921,33.6875442 118.99968,33.7444744 118.721697,33.7444744 L116.576306,33.7444744 L118.813523,28.9372186 L113.980967,17.8408465 L116.494497,17.8408465 C116.729906,17.8408465 116.906045,17.8935907 117.029593,18.0024279 C117.15648,18.1137767 117.248306,18.2368465 117.31008,18.3791721 L119.86368,24.5921023 C119.947993,24.7972186 120.019784,25.0081953 120.084897,25.2216837 C120.145837,25.442707 120.202602,25.6603814 120.245176,25.8814047 C120.310289,25.6503349 120.375402,25.4343349 120.452202,25.2216837 C120.525663,25.0140558 120.599958,24.798893 120.690115,24.5812186 L123.090115,18.3791721 C123.150219,18.2217767 123.254567,18.0961953 123.401489,17.9898698 C123.541732,17.8919163 123.704515,17.8408465 123.880654,17.8408465 L126.189663,17.8408465 L119.677523,33.1215907 Z" id="Fill-9"></path>
                    <path d="M127.532911,29.8283442 L127.532911,17.8411814 L129.290129,17.8411814 C129.665781,17.8411814 129.913711,18.0144837 130.023903,18.3644372 L130.226755,19.3121581 C130.464668,19.0660186 130.718442,18.8349488 130.986407,18.6373674 C131.255207,18.431414 131.537363,18.259786 131.83705,18.107414 C132.137572,17.9617395 132.453955,17.8487163 132.796216,17.7725302 C133.138477,17.6904837 133.513294,17.6544837 133.917329,17.6544837 C134.570129,17.6544837 135.146963,17.7641581 135.652842,17.9860186 C136.157885,18.2087163 136.578616,18.5193209 136.917537,18.9203442 C137.253955,19.3255535 137.511068,19.8027628 137.685537,20.3603442 C137.860007,20.915414 137.948494,21.5282512 137.948494,22.2005302 L137.948494,29.8283442 L135.071833,29.8283442 L135.071833,22.2005302 C135.071833,21.4662977 134.902372,20.8986698 134.56345,20.4976465 C134.227868,20.0974605 133.71865,19.8965302 133.044146,19.8965302 C132.546616,19.8965302 132.078303,20.0103907 131.64672,20.2330884 C131.210963,20.4616465 130.80025,20.7697395 130.408737,21.1590419 L130.408737,29.8283442 L127.532911,29.8283442 Z" id="Fill-10"></path>
                    <path d="M144.088403,28.0280093 C144.382247,28.0280093 144.656056,28.0037302 144.903986,27.9493116 C145.151082,27.8940558 145.38649,27.8136837 145.607708,27.7040093 C145.82976,27.5993581 146.045134,27.4654047 146.25049,27.3105209 C146.455847,27.1514512 146.664543,26.9681023 146.869899,26.7512651 L146.869899,24.7461488 C146.031777,24.7461488 145.333899,24.7972186 144.769586,24.9052186 C144.209447,25.0098698 143.75616,25.1438233 143.413064,25.3121023 C143.070803,25.4753581 142.829551,25.6670791 142.685969,25.8872651 C142.542386,26.106614 142.47143,26.3452186 142.47143,26.6022419 C142.47143,27.1137767 142.619186,27.4804744 142.918038,27.7006605 C143.216056,27.9183349 143.607569,28.0280093 144.088403,28.0280093 L144.088403,28.0280093 Z M149.683951,29.8280093 L148.387534,29.8280093 C148.112056,29.8280093 147.90336,29.7878233 147.747256,29.7057767 C147.590317,29.6220558 147.476786,29.4571256 147.394977,29.2084744 L147.140369,28.3553581 C146.837343,28.6282884 146.543499,28.8702419 146.25049,29.0728465 C145.959986,29.2821488 145.65696,29.4521023 145.347256,29.5977767 C145.035882,29.7350791 144.704473,29.8380558 144.358873,29.9083814 C144.006595,29.978707 143.619256,30.014707 143.191847,30.014707 C142.685969,30.014707 142.22016,29.9460558 141.79609,29.8087535 C141.368682,29.6697767 140.997203,29.4688465 140.690838,29.1942419 C140.386977,28.9188 140.145725,28.5805674 139.976264,28.1736837 C139.803464,27.7676372 139.719151,27.2954512 139.719151,26.754614 C139.719151,26.3041953 139.83936,25.854614 140.073934,25.4100558 C140.315186,24.9721953 140.70336,24.5728465 141.259325,24.2161953 C141.811951,23.8612186 142.542386,23.5673581 143.462317,23.3337767 C144.378908,23.0993581 145.511708,22.9804744 146.869899,22.9804744 L146.869899,22.2755442 C146.869899,21.4659628 146.700438,20.8690326 146.36736,20.4797302 C146.028438,20.0895907 145.535917,19.8961953 144.89063,19.8961953 C144.427325,19.8961953 144.039151,19.9522884 143.729447,20.0611256 C143.416403,20.1708 143.147603,20.2921953 142.918038,20.4278233 C142.685969,20.5651256 142.477273,20.6856837 142.285273,20.7970326 C142.089099,20.9050326 141.87289,20.9636372 141.64249,20.9636372 C141.445482,20.9636372 141.28103,20.906707 141.144125,20.8087535 C141.000543,20.7091256 140.889517,20.582707 140.804369,20.4345209 L140.280125,19.5119163 C141.655847,18.2494047 143.312056,17.6181488 145.252925,17.6181488 C145.949969,17.6181488 146.576056,17.7328465 147.124508,17.9639163 C147.675464,18.1924744 148.138769,18.5114512 148.513586,18.9200093 C148.895082,19.3335907 149.182247,19.8158233 149.384264,20.3901488 C149.582943,20.9561023 149.683951,21.578986 149.683951,22.2588 L149.683951,29.8280093 Z" id="Fill-11"></path>
                    <path d="M152.201405,29.8283442 L152.201405,17.8411814 L153.956118,17.8411814 C154.330936,17.8411814 154.572188,18.0144837 154.689057,18.3644372 L154.878553,19.2569023 C155.08391,19.0182977 155.305962,18.8073209 155.537197,18.611414 C155.765927,18.4163442 156.008849,18.2497395 156.267631,18.107414 C156.528918,17.9667628 156.806066,17.8570884 157.105753,17.7758791 C157.408779,17.695507 157.735179,17.6544837 158.090797,17.6544837 C158.84377,17.6544837 159.466518,17.8570884 159.952362,18.2639721 C160.438205,18.6733674 160.800501,19.2209023 161.038414,19.8965302 C161.22791,19.4988558 161.459144,19.1572744 161.741301,18.8759721 C162.020118,18.5879721 162.326483,18.3577395 162.658727,18.179414 C162.995144,17.999414 163.347423,17.8688093 163.725579,17.783414 C164.100397,17.6971814 164.478553,17.6544837 164.860049,17.6544837 C165.520362,17.6544837 166.108883,17.755786 166.618101,17.9583907 C167.129823,18.1584837 167.561405,18.4573674 167.912014,18.8466698 C168.264292,19.2342977 168.528918,19.711507 168.710901,20.2707628 C168.893718,20.831693 168.982205,21.4738326 168.982205,22.2005302 L168.982205,29.8283442 L166.108883,29.8283442 L166.108883,22.2005302 C166.108883,21.4336465 165.939423,20.8593209 165.60551,20.4733674 C165.270762,20.087414 164.781579,19.8965302 164.136292,19.8965302 C163.842449,19.8965302 163.56864,19.9484372 163.31737,20.0497395 C163.063597,20.147693 162.841544,20.2967163 162.652883,20.4867628 C162.463388,20.6759721 162.313127,20.9162512 162.20544,21.2025767 C162.09191,21.4939256 162.042657,21.823786 162.042657,22.2005302 L162.042657,29.8283442 L159.150136,29.8283442 L159.150136,22.2005302 C159.150136,21.3976465 158.990692,20.8107628 158.67097,20.4457395 C158.34457,20.0782047 157.872083,19.8965302 157.242657,19.8965302 C156.828605,19.8965302 156.44377,20.0011814 156.081475,20.2071349 C155.721683,20.4130884 155.386936,20.6960651 155.072223,21.0527163 L155.072223,29.8283442 L152.201405,29.8283442 Z" id="Fill-12"></path>
                    <path d="M171.535304,29.8286791 L174.41447,29.8286791 L174.41447,17.8415163 L171.535304,17.8415163 L171.535304,29.8286791 Z M174.843548,14.344493 C174.843548,14.5981674 174.795965,14.8317488 174.694957,15.0460744 C174.593948,15.2670977 174.460383,15.4571442 174.293426,15.6187256 C174.123965,15.7853302 173.931965,15.912586 173.706574,16.0097023 C173.478678,16.1076558 173.237426,16.156214 172.982817,16.156214 C172.733217,16.156214 172.496974,16.1076558 172.278261,16.0097023 C172.060383,15.912586 171.86087,15.7853302 171.701426,15.6187256 C171.535304,15.4571442 171.405913,15.2670977 171.309913,15.0460744 C171.212243,14.8317488 171.162991,14.5981674 171.162991,14.344493 C171.162991,14.0899814 171.212243,13.8480279 171.309913,13.6219814 C171.405913,13.3984465 171.535304,13.2033767 171.701426,13.0384465 C171.86087,12.8751907 172.060383,12.7437488 172.278261,12.6457953 C172.496974,12.5478419 172.733217,12.5017953 172.982817,12.5017953 C173.237426,12.5017953 173.478678,12.5478419 173.706574,12.6457953 C173.931965,12.7437488 174.123965,12.8751907 174.293426,13.0384465 C174.460383,13.2033767 174.593948,13.3984465 174.694957,13.6219814 C174.795965,13.8480279 174.843548,14.0899814 174.843548,14.344493 L174.843548,14.344493 Z" id="Fill-13"></path>
                    <path d="M184.691664,20.7192558 C184.606516,20.8322791 184.522203,20.9168372 184.440394,20.9779535 C184.35942,21.0415814 184.238377,21.0708837 184.084777,21.0708837 C183.935351,21.0708837 183.795107,21.0265116 183.654864,20.9369302 C183.517959,20.8465116 183.348499,20.7468837 183.152325,20.6338605 C182.960325,20.52 182.729925,20.4203721 182.464464,20.3299535 C182.193994,20.2386977 181.860916,20.1926512 181.463559,20.1926512 C180.957681,20.1926512 180.514412,20.2872558 180.136255,20.4689302 C179.758099,20.6522791 179.438377,20.9168372 179.187107,21.2575814 C178.933333,21.6008372 178.747177,22.0177674 178.622794,22.5033488 C178.494238,22.9889302 178.434133,23.5431628 178.434133,24.156 C178.434133,24.7922791 178.502586,25.3682791 178.63949,25.8605581 C178.776394,26.3620465 178.969229,26.7806512 179.223003,27.1197209 C179.48262,27.4596279 179.797333,27.7141395 180.158794,27.8882791 C180.524429,28.0615814 180.935142,28.1511628 181.395107,28.1511628 C181.855072,28.1511628 182.221542,28.095907 182.507038,27.9812093 C182.790864,27.868186 183.028777,27.7442791 183.220777,27.6069767 C183.416951,27.4705116 183.586412,27.3482791 183.729994,27.2369302 C183.876081,27.1205581 184.03302,27.0669767 184.215838,27.0669767 C184.443733,27.0669767 184.623212,27.1548837 184.739246,27.3332093 L185.565681,28.3847442 C185.245959,28.7606512 184.900359,29.072093 184.528881,29.3249302 C184.153229,29.5786047 183.76589,29.7828837 183.367699,29.9302326 C182.967003,30.0867907 182.555455,30.1964651 182.128881,30.2542326 C181.701472,30.3178605 181.277403,30.3471628 180.856672,30.3471628 C180.119559,30.3471628 179.42502,30.2098605 178.773055,29.9302326 C178.117751,29.6573023 177.550099,29.2546047 177.064255,28.7254884 C176.581751,28.1938605 176.193577,27.5458605 175.91309,26.7806512 C175.630099,26.012093 175.489855,25.1372093 175.489855,24.156 C175.489855,23.2735814 175.613403,22.4606512 175.868012,21.7105116 C176.118446,20.9545116 176.48909,20.3056744 176.976603,19.7564651 C177.469125,19.2097674 178.075177,18.7769302 178.796429,18.468 C179.520186,18.1540465 180.349959,18 181.290759,18 C182.180638,18 182.963664,18.1406512 183.638168,18.4303256 C184.310168,18.7191628 184.913716,19.1327442 185.447977,19.6710698 L184.691664,20.7192558 Z" id="Fill-14"></path>
                    <path d="M195.513934,20.1742326 C195.435464,20.299814 195.35449,20.3902326 195.269343,20.4404651 C195.18169,20.4932093 195.077343,20.515814 194.942943,20.515814 C194.802699,20.515814 194.653273,20.4764651 194.492995,20.4011163 C194.333551,20.3232558 194.154073,20.2328372 193.938699,20.1365581 C193.730003,20.0386047 193.49209,19.9515349 193.22496,19.872 C192.95449,19.7966512 192.641447,19.7573023 192.275812,19.7573023 C191.70816,19.7573023 191.261551,19.8778605 190.935986,20.1189767 C190.612925,20.3609302 190.446803,20.6748837 190.446803,21.0666977 C190.446803,21.3220465 190.524438,21.5380465 190.697238,21.7130233 C190.860856,21.8863256 191.085412,22.0420465 191.36256,22.1776744 C191.636369,22.3066047 191.949412,22.432186 192.298351,22.5293023 C192.643951,22.6364651 193.002908,22.7511628 193.371882,22.8775814 C193.733343,23.0031628 194.092299,23.1404651 194.444577,23.3020465 C194.790177,23.4594419 195.099882,23.6637209 195.380369,23.9090233 C195.654177,24.1543256 195.87623,24.4473488 196.042351,24.7922791 C196.211812,25.1355349 196.296125,25.5474419 196.296125,26.0313488 C196.296125,26.6073488 196.185934,27.1381395 195.977238,27.6270698 C195.771882,28.1134884 195.464682,28.532093 195.057308,28.887907 C194.653273,29.2412093 194.154073,29.5208372 193.560543,29.7175814 C192.967012,29.9134884 192.28583,30.0147907 191.519499,30.0147907 C191.108786,30.0147907 190.703917,29.9787907 190.313238,29.900093 C189.918386,29.828093 189.543569,29.7251163 189.181273,29.5978605 C188.818977,29.4622326 188.483395,29.3065116 188.180369,29.128186 C187.879012,28.9490233 187.607708,28.7539535 187.373134,28.5413023 L188.035117,27.4428837 C188.120264,27.3106047 188.219603,27.2101395 188.336473,27.139814 C188.454177,27.067814 188.601099,27.031814 188.780577,27.031814 C188.956717,27.031814 189.126177,27.0862326 189.282282,27.1858605 C189.445064,27.2888372 189.631221,27.3985116 189.839917,27.5148837 C190.051951,27.6287442 190.296543,27.740093 190.580369,27.8413953 C190.860856,27.9426977 191.218977,27.9937674 191.659743,27.9937674 C191.998664,27.9937674 192.289169,27.9527442 192.537099,27.8690233 C192.78169,27.7894884 192.983708,27.679814 193.143151,27.5458605 C193.30343,27.416093 193.41696,27.2612093 193.49209,27.0862326 C193.567221,26.9112558 193.603117,26.7295814 193.603117,26.5445581 C193.603117,26.264093 193.517969,26.0330233 193.351847,25.8546977 C193.185725,25.6746977 192.963673,25.519814 192.689864,25.3858605 C192.412717,25.256093 192.096334,25.1372093 191.744056,25.0342326 C191.389273,24.9245581 191.030317,24.8115349 190.658838,24.6876279 C190.293203,24.5645581 189.928403,24.4146977 189.579464,24.2489302 C189.223847,24.0789767 188.907464,23.868 188.633656,23.611814 C188.359847,23.3547907 188.139464,23.0391628 187.973343,22.6649302 C187.800543,22.2898605 187.718734,21.8419535 187.718734,21.312 C187.718734,20.8197209 187.816403,20.3525581 188.010908,19.908 C188.202908,19.4642791 188.490073,19.0774884 188.86823,18.7451163 C189.243047,18.4152558 189.71303,18.1498605 190.277343,17.9539535 C190.840821,17.7513488 191.490282,17.6542326 192.229899,17.6542326 C193.05216,17.6542326 193.798456,17.788186 194.477134,18.0619535 C195.149134,18.3348837 195.712612,18.6948837 196.165899,19.1377674 L195.513934,20.1742326 Z" id="Fill-15"></path>
                    <path d="M35.4179061,18.250493 L35.4179061,18.250493 C33.528793,9.27812093 23.544793,0.835702326 16.6970713,0.0579348837 L16.6970713,0.058772093 C16.1411061,0.412911628 15.6786365,0.855795349 15.3054887,1.3731907 C19.2949148,1.74407442 22.7776278,4.41979535 26.7787409,8.71635349 C29.8866365,12.0568186 31.9652452,17.3915163 32.4752974,23.0125395 C32.6806539,25.2370047 32.6372452,27.5050047 32.3225322,29.7135628 C35.529767,26.1897488 36.2443409,22.1694698 35.4179061,18.250493" id="Fill-16" opacity="0.300000012"></path>
                    <path d="M32.4757148,23.0129581 C32.6810713,25.236586 32.6376626,27.504586 32.3221148,29.7139814 C28.6774539,33.8347256 16.0989496,35.8733302 8.11425391,35.2906326 L8.11425391,35.2872837 C6.90799304,33.5659814 6.29359304,31.6655163 6.1374887,29.6746326 C16.2834365,31.5767721 27.1464626,28.5008651 32.4757148,23.0129581" id="Fill-17" opacity="0.5"></path>
                    <path d="M24.8608278,10.1187628 C27.202393,13.8560651 26.7324104,20.5922512 24.1253843,24.4785767 L23.7923061,24.3973674 C22.0451061,23.6522512 20.271193,21.9267628 18.7235061,19.711507 C23.95008,13.3529023 21.0550539,8.52304186 17.3970365,7.53346047 C16.3051409,7.23457674 15.1464626,7.27978605 14.1138365,7.73020465 C17.625767,6.05243721 22.2730017,6.27094884 24.8608278,10.1187628" id="Fill-18" opacity="0.900000036"></path>
                    <path d="M14.1141704,7.73053953 C15.1459617,7.28012093 16.30464,7.23407442 17.3973704,7.53379535 C16.4791096,8.39612093 15.51744,9.38988837 14.5624487,10.4849581 C14.334553,9.5548186 14.17344,8.6364 14.0824487,7.7456093 L14.0824487,7.74309767 C14.0958052,7.73807442 14.1024835,7.73305116 14.1141704,7.73053953" id="Fill-19"></path>
                    <path d="M23.792473,24.3971163 C22.045273,23.652 20.27136,21.9265116 18.723673,19.7112558 C16.8712904,17.0648372 15.3394643,13.7101395 14.5622817,10.4852093 C14.3343861,9.55423256 14.173273,8.63665116 14.0831165,7.74502326 L14.0831165,7.74251163 C13.8260035,5.22586047 14.1574122,2.952 15.3052383,1.37302326 C15.6792209,0.855627907 16.1408557,0.412744186 16.6968209,0.0594418605 L16.6968209,0.0577674419 C14.62656,-0.175813953 12.84096,0.288 11.6572383,1.65516279 L11.6513948,1.65516279 C10.7531687,2.68911628 10.1938643,4.23711628 10.1162296,6.38790698 C9.97097739,7.48883721 9.86245565,9.05860465 9.84242087,10.8544186 C9.82572522,12.6092093 9.90085565,14.5741395 10.1178991,16.539907 C10.9426643,23.9860465 13.8401948,31.3794419 21.7965078,26.7672558 C22.6972383,26.2423256 23.4785948,25.4469767 24.1255513,24.4791628 L23.792473,24.3971163 Z" id="Fill-20" opacity="0.699999988"></path>
                    <path d="M6.13773913,29.6746326 C5.80466087,25.4057023 7.57857391,20.7231907 10.1179826,16.540493 C9.90093913,14.5738884 9.8258087,12.6089581 9.84250435,10.8550047 C5.67109565,14.736307 0.659895652,22.2368651 0.0596869565,27.8938884 C-0.253356522,30.8425395 0.633182609,33.2871907 3.46977391,34.4559349 C4.656,34.8804 6.26128696,35.1550047 8.11450435,35.2906326 L8.11450435,35.2872837 C6.9074087,33.5659814 6.2930087,31.6655163 6.13773913,29.6746326" id="Fill-21"></path>
                </g>
            </g>
        </g>
    </g>
</svg>