<?xml version="1.0" encoding="UTF-8"?>
<svg width="205px" height="52px" viewBox="0 0 205 52" version="1.1" xmlns="http://www.w3.org/2000/svg" xmlns:xlink="http://www.w3.org/1999/xlink">
    <defs>
        <path d="M35.5208651,18.250493 L35.5208651,18.250493 C33.6262605,9.27812093 23.6132372,0.835702326 16.7456093,0.0579348837 L16.7456093,0.058772093 C16.1880279,0.412911628 15.724214,0.855795349 15.3499814,1.3731907 C19.3510047,1.74407442 22.8438419,4.41979535 26.856586,8.71635349 C29.9735163,12.0568186 32.0581674,17.3915163 32.5697023,23.0125395 C32.7756558,25.2370047 32.7321209,27.5050047 32.416493,29.7135628 C35.6330512,26.1897488 36.3497023,22.1694698 35.5208651,18.250493" id="path-1"></path>
        <filter x="-63.5%" y="-37.1%" width="226.9%" height="187.7%" filterUnits="objectBoundingBox" id="filter-2">
            <feOffset dx="0" dy="2" in="SourceAlpha" result="shadowOffsetOuter1"></feOffset>
            <feGaussianBlur stdDeviation="4" in="shadowOffsetOuter1" result="shadowBlurOuter1"></feGaussianBlur>
            <feColorMatrix values="0 0 0 0 0   0 0 0 0 0   0 0 0 0 0  0 0 0 0.12 0" type="matrix" in="shadowBlurOuter1"></feColorMatrix>
        </filter>
        <path d="M32.5701209,23.0129581 C32.7760744,25.236586 32.7325395,27.504586 32.4160744,29.7139814 C28.7608186,33.8347256 16.1457488,35.8733302 8.13784186,35.2906326 L8.13784186,35.2872837 C6.92807442,33.5659814 6.31188837,31.6655163 6.15533023,29.6746326 C16.3307721,31.5767721 27.2253767,28.5008651 32.5701209,23.0129581" id="path-3"></path>
        <filter x="-49.0%" y="-88.9%" width="198.0%" height="310.1%" filterUnits="objectBoundingBox" id="filter-4">
            <feOffset dx="0" dy="2" in="SourceAlpha" result="shadowOffsetOuter1"></feOffset>
            <feGaussianBlur stdDeviation="4" in="shadowOffsetOuter1" result="shadowBlurOuter1"></feGaussianBlur>
            <feColorMatrix values="0 0 0 0 0   0 0 0 0 0   0 0 0 0 0  0 0 0 0.12 0" type="matrix" in="shadowBlurOuter1"></feColorMatrix>
        </filter>
        <path d="M24.9330977,10.1187628 C27.2814698,13.8560651 26.8101209,20.5922512 24.1955163,24.4785767 L23.8614698,24.3973674 C22.1091907,23.6522512 20.3301209,21.9267628 18.7779349,19.711507 C24.0197023,13.3529023 21.1162605,8.52304186 17.4476093,7.53346047 C16.3525395,7.23457674 15.190493,7.27978605 14.1548651,7.73020465 C17.6770047,6.05243721 22.3377488,6.27094884 24.9330977,10.1187628" id="path-5"></path>
        <filter x="-105.7%" y="-62.0%" width="311.4%" height="246.5%" filterUnits="objectBoundingBox" id="filter-6">
            <feOffset dx="0" dy="2" in="SourceAlpha" result="shadowOffsetOuter1"></feOffset>
            <feGaussianBlur stdDeviation="4" in="shadowOffsetOuter1" result="shadowBlurOuter1"></feGaussianBlur>
            <feColorMatrix values="0 0 0 0 0   0 0 0 0 0   0 0 0 0 0  0 0 0 0.12 0" type="matrix" in="shadowBlurOuter1"></feColorMatrix>
        </filter>
        <path d="M14.1552,7.73053953 C15.1899907,7.28012093 16.3520372,7.23407442 17.4479442,7.53379535 C16.527014,8.39612093 15.5625488,9.38988837 14.6047814,10.4849581 C14.3762233,9.5548186 14.2146419,8.6364 14.123386,7.7456093 L14.123386,7.74309767 C14.1367814,7.73807442 14.1434791,7.73305116 14.1552,7.73053953" id="path-7"></path>
        <filter x="-391.0%" y="-350.2%" width="882.1%" height="927.6%" filterUnits="objectBoundingBox" id="filter-8">
            <feOffset dx="0" dy="2" in="SourceAlpha" result="shadowOffsetOuter1"></feOffset>
            <feGaussianBlur stdDeviation="4" in="shadowOffsetOuter1" result="shadowBlurOuter1"></feGaussianBlur>
            <feColorMatrix values="0 0 0 0 0   0 0 0 0 0   0 0 0 0 0  0 0 0 0.12 0" type="matrix" in="shadowBlurOuter1"></feColorMatrix>
        </filter>
        <path d="M23.8616372,24.3971163 C22.1093581,23.652 20.3302884,21.9265116 18.7781023,19.7112558 C16.9203349,17.0648372 15.3840558,13.7101395 14.604614,10.4852093 C14.3760558,9.55423256 14.2144744,8.63665116 14.1240558,7.74502326 L14.1240558,7.74251163 C13.8661953,5.22586047 14.1985674,2.952 15.3497302,1.37302326 C15.7248,0.855627907 16.1877767,0.412744186 16.7453581,0.0594418605 L16.7453581,0.0577674419 C14.6690791,-0.175813953 12.8782884,0.288 11.6911256,1.65516279 L11.6852651,1.65516279 C10.7844279,2.68911628 10.2234977,4.23711628 10.1456372,6.38790698 C9.99996279,7.48883721 9.89112558,9.05860465 9.87103256,10.8544186 C9.85428837,12.6092093 9.92963721,14.5741395 10.1473116,16.539907 C10.9744744,23.9860465 13.8804279,31.3794419 21.8598698,26.7672558 C22.7632186,26.2423256 23.5468465,25.4469767 24.1956837,24.4791628 L23.8616372,24.3971163 Z" id="path-9"></path>
        <filter x="-90.7%" y="-39.0%" width="281.5%" height="192.2%" filterUnits="objectBoundingBox" id="filter-10">
            <feOffset dx="0" dy="2" in="SourceAlpha" result="shadowOffsetOuter1"></feOffset>
            <feGaussianBlur stdDeviation="4" in="shadowOffsetOuter1" result="shadowBlurOuter1"></feGaussianBlur>
            <feColorMatrix values="0 0 0 0 0   0 0 0 0 0   0 0 0 0 0  0 0 0 0.12 0" type="matrix" in="shadowBlurOuter1"></feColorMatrix>
        </filter>
        <path d="M6.1555814,29.6746326 C5.82153488,25.4057023 7.60060465,20.7231907 10.1473953,16.540493 C9.92972093,14.5738884 9.85437209,12.6089581 9.87111628,10.8550047 C5.6875814,14.736307 0.661813953,22.2368651 0.0598604651,27.8938884 C-0.254093023,30.8425395 0.635023256,33.2871907 3.47986047,34.4559349 C4.66953488,34.8804 6.27948837,35.1550047 8.13809302,35.2906326 L8.13809302,35.2872837 C6.92748837,33.5659814 6.31130233,31.6655163 6.1555814,29.6746326" id="path-11"></path>
        <filter x="-128.1%" y="-45.0%" width="356.2%" height="206.4%" filterUnits="objectBoundingBox" id="filter-12">
            <feOffset dx="0" dy="2" in="SourceAlpha" result="shadowOffsetOuter1"></feOffset>
            <feGaussianBlur stdDeviation="4" in="shadowOffsetOuter1" result="shadowBlurOuter1"></feGaussianBlur>
            <feColorMatrix values="0 0 0 0 0   0 0 0 0 0   0 0 0 0 0  0 0 0 0.12 0" type="matrix" in="shadowBlurOuter1"></feColorMatrix>
        </filter>
    </defs>
    <g id="Grid-DevOps-In-UA" stroke="none" stroke-width="1" fill="black" fill-rule="evenodd">
        <g id="DevOps-In-UA-Cyan" transform="translate(-124.000000, -47.000000)">
            <g id="1st">
                <g id="logo" transform="translate(132.000000, 53.000000)">
                    <path d="M55.661693,27.5145488 C56.3682977,27.5145488 56.9878326,27.4492465 57.5127628,27.3219907 C58.0360186,27.1938977 58.5366698,27.0172465 59.0138791,26.7903628 L59.0138791,23.7194791 L56.8982512,23.7194791 C56.6964837,23.7194791 56.5349023,23.663386 56.4202047,23.5528744 C56.3029953,23.4365023 56.2435535,23.2992 56.2435535,23.1359442 L56.2435535,21.3577116 L61.865414,21.3577116 L61.865414,28.1918512 C61.4342512,28.5058047 60.9888558,28.7737116 60.5275535,29.0056186 C60.0637395,29.2333395 59.569786,29.4275721 59.0431814,29.5715721 C58.5165767,29.7189209 57.9506233,29.8319442 57.3553674,29.9047814 C56.7576,29.9784558 56.1096,30.0144558 55.4130419,30.0144558 C54.1831814,30.0144558 53.0521116,29.8018047 52.0156465,29.3739907 C50.9783442,28.9436651 50.0825302,28.3500837 49.3240186,27.5832 C48.5713674,26.8246884 47.9828093,25.9104558 47.557507,24.8522233 C47.1322047,23.7965023 46.9220651,22.6369674 46.9220651,21.3828279 C46.9220651,20.1119442 47.129693,18.9448744 47.5416,17.8883163 C47.953507,16.8267349 48.5387163,15.9158512 49.3005767,15.1539907 C50.0565767,14.3904558 50.9783442,13.7985488 52.0608558,13.3782698 C53.1433674,12.9563163 54.361507,12.747014 55.7043907,12.747014 C57.0841116,12.747014 58.2779721,12.9529674 59.2884837,13.3623628 C60.2973209,13.7709209 61.1496,14.3025488 61.8511814,14.9564093 L60.9402977,16.3805023 C60.7636465,16.6685023 60.5275535,16.8125023 60.2269953,16.8125023 C60.037786,16.8125023 59.8510884,16.7522233 59.657693,16.6258047 C59.4065302,16.4767814 59.1511814,16.3319442 58.8924837,16.1845953 C58.6312744,16.0338977 58.3432744,15.9066419 58.0226233,15.7969674 C57.7120186,15.687293 57.3553674,15.5977116 56.9635535,15.527386 C56.5709023,15.4570605 56.1179721,15.4260837 55.5997395,15.4260837 C54.7658791,15.4260837 54.0132279,15.563386 53.3384372,15.8446884 C52.6661581,16.1226419 52.093507,16.5228279 51.6196465,17.0477581 C51.1424372,17.5693395 50.7757395,18.1938977 50.5170419,18.9264558 C50.2625302,19.659014 50.1344372,20.4769674 50.1344372,21.3828279 C50.1344372,22.3556651 50.2725767,23.2238512 50.5438326,23.9857116 C50.8150884,24.7383628 51.197693,25.3838512 51.6882977,25.9037581 C52.1822512,26.4253395 52.7641116,26.8246884 53.4397395,27.1009674 C54.1178791,27.3772465 54.8604837,27.5145488 55.661693,27.5145488 Z" id="Fill-1" fill="#FFFFFF"></path>
                    <path d="M64.4654512,29.8283442 L64.4654512,17.8428558 L66.1591256,17.8428558 C66.4538233,17.8428558 66.6597767,17.8964372 66.7778233,18.0061116 C66.8950326,18.1141116 66.9737302,18.3016465 67.0130791,18.5653674 L67.1863814,20.0170884 C67.6150326,19.2761581 68.1181953,18.6892744 68.6908465,18.2614605 C69.2693581,17.8328093 69.9173581,17.6184837 70.6331721,17.6184837 C71.2250791,17.6184837 71.7140093,17.755786 72.1083349,18.0270419 L71.7307535,20.1903907 C71.7056372,20.3310419 71.6570791,20.4273209 71.5817302,20.4884372 C71.4996837,20.5470419 71.3983814,20.5729953 71.2644279,20.5729953 C71.1463814,20.5729953 70.9864744,20.5487163 70.7872186,20.4951349 C70.5812651,20.4373674 70.3141953,20.4130884 69.9793116,20.4130884 C69.380707,20.4130884 68.8674977,20.5780186 68.4371721,20.9070419 C68.0068465,21.2385767 67.6476837,21.7241581 67.3496372,22.363786 L67.3496372,29.8283442 L64.4654512,29.8283442 Z" id="Fill-3" fill="#FFFFFF"></path>
                    <path d="M73.6484651,29.8286791 L76.536,29.8286791 L76.536,17.8431907 L73.6484651,17.8431907 L73.6484651,29.8286791 Z M76.9646512,14.3478419 C76.9646512,14.5981674 76.9169302,14.8317488 76.8156279,15.0510977 C76.7143256,15.2670977 76.5820465,15.4571442 76.4154419,15.6237488 C76.2454884,15.7853302 76.0470698,15.9159349 75.8252093,16.0147256 C75.5974884,16.1110047 75.3555349,16.1595628 75.0976744,16.1595628 C74.8490233,16.1595628 74.6146047,16.1110047 74.3927442,16.0147256 C74.1700465,15.9159349 73.975814,15.7853302 73.8133953,15.6237488 C73.6484651,15.4571442 73.5228837,15.2670977 73.4232558,15.0510977 C73.3244651,14.8317488 73.275907,14.5981674 73.275907,14.3478419 C73.275907,14.0899814 73.3244651,13.8497023 73.4232558,13.6286791 C73.5228837,13.3984465 73.6484651,13.2033767 73.8133953,13.0384465 C73.975814,12.8751907 74.1700465,12.7437488 74.3927442,12.6457953 C74.6146047,12.5478419 74.8490233,12.5034698 75.0976744,12.5034698 C75.3555349,12.5034698 75.5974884,12.5478419 75.8252093,12.6457953 C76.0470698,12.7437488 76.2454884,12.8751907 76.4154419,13.0384465 C76.5820465,13.2033767 76.7143256,13.3984465 76.8156279,13.6286791 C76.9169302,13.8497023 76.9646512,14.0899814 76.9646512,14.3478419 L76.9646512,14.3478419 Z" id="Fill-5" fill="#FFFFFF"></path>
                    <path d="M84.0024837,27.7140558 C84.6010884,27.7140558 85.1109488,27.5918233 85.5295535,27.3398233 C85.951507,27.0928465 86.347507,26.7395442 86.723414,26.274893 L86.723414,20.9033581 C86.3960651,20.5065209 86.0402512,20.2235442 85.6526233,20.0611256 C85.2683442,19.8961953 84.851414,19.8158233 84.4043442,19.8158233 C83.9698326,19.8158233 83.5771814,19.8961953 83.2238791,20.0611256 C82.8680651,20.2235442 82.5700186,20.4705209 82.3213674,20.8020558 C82.0760651,21.1377767 81.8902047,21.554707 81.755414,22.0662419 C81.6264837,22.5761023 81.5561581,23.1763814 81.5561581,23.8712651 C81.5561581,24.5728465 81.6147628,25.1647535 81.7261116,25.6503349 C81.8408093,26.142614 82.0023907,26.5352651 82.2100186,26.8425209 C82.4193209,27.1514512 82.6780186,27.3741488 82.9819256,27.5097767 C83.2866698,27.6437302 83.6265767,27.7140558 84.0024837,27.7140558 L84.0024837,27.7140558 Z M87.8452744,29.8280093 C87.4693674,29.8280093 87.227414,29.6563814 87.1093674,29.3014047 L86.8707628,28.1460558 C86.6221116,28.4240093 86.363414,28.6818698 86.0888093,28.9062419 C85.8175535,29.1297767 85.5228558,29.3248465 85.2122512,29.4881023 C84.8949488,29.6563814 84.551693,29.7794512 84.1925302,29.8723814 C83.8325302,29.9594512 83.4398791,30.0013116 83.0179256,30.0013116 C82.3640651,30.0013116 81.763786,29.8690326 81.2179256,29.5977767 C80.6729023,29.3248465 80.2023907,28.9254977 79.8097395,28.410614 C79.4170884,27.890707 79.1131814,27.2527535 78.9005302,26.4858698 C78.6845302,25.7240093 78.5773674,24.8524744 78.5773674,23.8712651 C78.5773674,22.9821488 78.6979256,22.1574977 78.9398791,21.3973116 C79.1818326,20.6321023 79.5267628,19.9681953 79.979693,19.410614 C80.4276,18.8463349 80.9742977,18.4068 81.6022047,18.0911721 C82.2334605,17.7805674 82.9409023,17.6181488 83.7312279,17.6181488 C84.4018326,17.6181488 84.9736465,17.7278233 85.4449953,17.9388 C85.9222047,18.1564744 86.347507,18.4411256 86.723414,18.7994512 L86.723414,12.4676372 L89.6042512,12.4676372 L89.6042512,29.8280093 L87.8452744,29.8280093 Z" id="Fill-7" fill="#FFFFFF"></path>
                    <path d="M110.374577,21.3793953 C110.374577,20.4526047 110.25067,19.6195814 109.99867,18.8836744 C109.753367,18.1502791 109.396716,17.5265581 108.935414,17.0150233 C108.47746,16.5051628 107.919879,16.1125116 107.260995,15.8446047 C106.600437,15.5716744 105.861181,15.4335349 105.034019,15.4335349 L101.750484,15.4335349 L101.750484,27.3269302 L105.034019,27.3269302 C105.861181,27.3269302 106.600437,27.1904651 107.260995,26.9192093 C107.919879,26.6446047 108.47746,26.2519535 108.935414,25.742093 C109.396716,25.2364186 109.753367,24.6085116 109.99867,23.8734419 C110.25067,23.1383721 110.374577,22.306186 110.374577,21.3793953 M113.584437,21.3793953 C113.584437,22.6184651 113.376809,23.7553953 112.968251,24.7918605 C112.555507,25.8266512 111.973647,26.7216279 111.229367,27.4667442 C110.480902,28.2177209 109.580065,28.7962326 108.526856,29.2081395 C107.473647,29.6208837 106.309926,29.8285116 105.034019,29.8285116 L98.5866698,29.8285116 L98.5866698,12.9353023 L105.034019,12.9353023 C106.309926,12.9353023 107.473647,13.1429302 108.526856,13.558186 C109.580065,13.9767907 110.480902,14.5561395 111.229367,15.2995814 C111.973647,16.0438605 112.555507,16.9346512 112.968251,17.9669302 C113.376809,19.0050698 113.584437,20.1411628 113.584437,21.3793953" id="Fill-8" fill="#FFFFFF"></path>
                    <path d="M120.025423,33.1215907 C119.940028,33.3258698 119.826167,33.4782419 119.688865,33.5845674 C119.555749,33.6875442 119.345609,33.7444744 119.066819,33.7444744 L116.915191,33.7444744 L119.158912,28.9372186 L114.312307,17.8408465 L116.833144,17.8408465 C117.069237,17.8408465 117.245888,17.8935907 117.369795,18.0024279 C117.497051,18.1137767 117.589144,18.2368465 117.651098,18.3791721 L120.212121,24.5921023 C120.296679,24.7972186 120.368679,25.0081953 120.433981,25.2216837 C120.495098,25.442707 120.552028,25.6603814 120.594726,25.8814047 C120.660028,25.6503349 120.72533,25.4343349 120.802353,25.2216837 C120.876028,25.0140558 120.95054,24.798893 121.040958,24.5812186 L123.447935,18.3791721 C123.508214,18.2217767 123.612865,18.0961953 123.760214,17.9898698 C123.900865,17.8919163 124.064121,17.8408465 124.240772,17.8408465 L126.556493,17.8408465 L120.025423,33.1215907 Z" id="Fill-9" fill="#FFFFFF"></path>
                    <path d="M127.903647,29.8283442 L127.903647,17.8411814 L129.665972,17.8411814 C130.042716,17.8411814 130.291367,18.0144837 130.401879,18.3644372 L130.605321,19.3121581 C130.843926,19.0660186 131.098437,18.8349488 131.367181,18.6373674 C131.636763,18.431414 131.91974,18.259786 132.220298,18.107414 C132.521693,17.9617395 132.838995,17.8487163 133.182251,17.7725302 C133.525507,17.6904837 133.901414,17.6544837 134.306623,17.6544837 C134.961321,17.6544837 135.539833,17.7641581 136.047181,17.9860186 C136.553693,18.2087163 136.975647,18.5193209 137.315553,18.9203442 C137.652949,19.3255535 137.910809,19.8027628 138.085786,20.3603442 C138.260763,20.915414 138.349507,21.5282512 138.349507,22.2005302 L138.349507,29.8283442 L135.464484,29.8283442 L135.464484,22.2005302 C135.464484,21.4662977 135.29453,20.8986698 134.954623,20.4976465 C134.618065,20.0974605 134.107367,19.8965302 133.430902,19.8965302 C132.931926,19.8965302 132.462251,20.0103907 132.029414,20.2330884 C131.592391,20.4616465 131.180484,20.7697395 130.787833,21.1590419 L130.787833,29.8283442 L127.903647,29.8283442 Z" id="Fill-10" fill="#FFFFFF"></path>
                    <path d="M144.507265,28.0280093 C144.801963,28.0280093 145.076567,28.0037302 145.325219,27.9493116 C145.573033,27.8940558 145.809126,27.8136837 146.030986,27.7040093 C146.253684,27.5993581 146.469684,27.4654047 146.675637,27.3105209 C146.881591,27.1514512 147.090893,26.9681023 147.296847,26.7512651 L147.296847,24.7461488 C146.456288,24.7461488 145.756381,24.7972186 145.190428,24.9052186 C144.62866,25.0098698 144.174056,25.1438233 143.829963,25.3121023 C143.486707,25.4753581 143.244753,25.6670791 143.100753,25.8872651 C142.956753,26.106614 142.885591,26.3452186 142.885591,26.6022419 C142.885591,27.1137767 143.033777,27.4804744 143.333498,27.7006605 C143.632381,27.9183349 144.025033,28.0280093 144.507265,28.0280093 L144.507265,28.0280093 Z M150.119079,29.8280093 L148.818893,29.8280093 C148.542614,29.8280093 148.333312,29.7878233 148.176753,29.7057767 C148.019358,29.6220558 147.905498,29.4571256 147.823451,29.2084744 L147.568102,28.3553581 C147.264195,28.6282884 146.969498,28.8702419 146.675637,29.0728465 C146.384288,29.2821488 146.080381,29.4521023 145.769777,29.5977767 C145.457498,29.7350791 145.125126,29.8380558 144.778521,29.9083814 C144.425219,29.978707 144.036753,30.014707 143.608102,30.014707 C143.100753,30.014707 142.633591,29.9460558 142.208288,29.8087535 C141.779637,29.6697767 141.407079,29.4688465 141.099823,29.1942419 C140.795079,28.9188 140.553126,28.5805674 140.383172,28.1736837 C140.20987,27.7676372 140.125312,27.2954512 140.125312,26.754614 C140.125312,26.3041953 140.24587,25.854614 140.481126,25.4100558 C140.723079,24.9721953 141.112381,24.5728465 141.669963,24.2161953 C142.224195,23.8612186 142.956753,23.5673581 143.879358,23.3337767 C144.798614,23.0993581 145.934707,22.9804744 147.296847,22.9804744 L147.296847,22.2755442 C147.296847,21.4659628 147.126893,20.8690326 146.792847,20.4797302 C146.45294,20.0895907 145.958986,19.8961953 145.311823,19.8961953 C144.847172,19.8961953 144.45787,19.9522884 144.147265,20.0611256 C143.833312,20.1708 143.56373,20.2921953 143.333498,20.4278233 C143.100753,20.5651256 142.891451,20.6856837 142.698893,20.7970326 C142.502149,20.9050326 142.285312,20.9636372 142.054242,20.9636372 C141.85666,20.9636372 141.69173,20.906707 141.554428,20.8087535 C141.410428,20.7091256 141.299079,20.582707 141.213684,20.4345209 L140.687916,19.5119163 C142.067637,18.2494047 143.72866,17.6181488 145.675172,17.6181488 C146.374242,17.6181488 147.002149,17.7328465 147.552195,17.9639163 C148.104753,18.1924744 148.569405,18.5114512 148.945312,18.9200093 C149.327916,19.3335907 149.615916,19.8158233 149.818521,20.3901488 C150.017777,20.9561023 150.119079,21.578986 150.119079,22.2588 L150.119079,29.8280093 Z" id="Fill-11" fill="#FFFFFF"></path>
                    <path d="M152.643851,29.8283442 L152.643851,17.8411814 L154.403665,17.8411814 C154.779572,17.8411814 155.021526,18.0144837 155.138735,18.3644372 L155.328781,19.2569023 C155.534735,19.0182977 155.757433,18.8073209 155.98934,18.611414 C156.218735,18.4163442 156.462363,18.2497395 156.721898,18.107414 C156.983944,17.9667628 157.261898,17.8570884 157.562456,17.7758791 C157.866363,17.695507 158.193712,17.6544837 158.550363,17.6544837 C159.305526,17.6544837 159.930084,17.8570884 160.41734,18.2639721 C160.904595,18.6733674 161.267944,19.2209023 161.506549,19.8965302 C161.696595,19.4988558 161.928502,19.1572744 162.211479,18.8759721 C162.491107,18.5879721 162.798363,18.3577395 163.131572,18.179414 C163.468967,17.999414 163.82227,17.8688093 164.201526,17.783414 C164.577433,17.6971814 164.956688,17.6544837 165.339293,17.6544837 C166.001526,17.6544837 166.591758,17.755786 167.102456,17.9583907 C167.615665,18.1584837 168.048502,18.4573674 168.40013,18.8466698 C168.753433,19.2342977 169.018828,19.711507 169.20134,20.2707628 C169.384688,20.831693 169.473433,21.4738326 169.473433,22.2005302 L169.473433,29.8283442 L166.591758,29.8283442 L166.591758,22.2005302 C166.591758,21.4336465 166.421805,20.8593209 166.086921,20.4733674 C165.7512,20.087414 165.260595,19.8965302 164.613433,19.8965302 C164.318735,19.8965302 164.04413,19.9484372 163.79213,20.0497395 C163.537619,20.147693 163.314921,20.2967163 163.125712,20.4867628 C162.935665,20.6759721 162.784967,20.9162512 162.676967,21.2025767 C162.563107,21.4939256 162.513712,21.823786 162.513712,22.2005302 L162.513712,29.8283442 L159.612781,29.8283442 L159.612781,22.2005302 C159.612781,21.3976465 159.452874,20.8107628 159.132223,20.4457395 C158.804874,20.0782047 158.331014,19.8965302 157.699758,19.8965302 C157.284502,19.8965302 156.898549,20.0011814 156.5352,20.2071349 C156.174363,20.4130884 155.838642,20.6960651 155.523014,21.0527163 L155.523014,29.8283442 L152.643851,29.8283442 Z" id="Fill-12" fill="#FFFFFF"></path>
                    <path d="M172.033953,29.8286791 L174.921488,29.8286791 L174.921488,17.8415163 L172.033953,17.8415163 L172.033953,29.8286791 Z M175.351814,14.344493 C175.351814,14.5981674 175.304093,14.8317488 175.202791,15.0460744 C175.101488,15.2670977 174.967535,15.4571442 174.800093,15.6187256 C174.63014,15.7853302 174.437581,15.912586 174.211535,16.0097023 C173.982977,16.1076558 173.741023,16.156214 173.485674,16.156214 C173.235349,16.156214 172.998419,16.1076558 172.77907,16.0097023 C172.560558,15.912586 172.360465,15.7853302 172.200558,15.6187256 C172.033953,15.4571442 171.904186,15.2670977 171.807907,15.0460744 C171.709953,14.8317488 171.660558,14.5981674 171.660558,14.344493 C171.660558,14.0899814 171.709953,13.8480279 171.807907,13.6219814 C171.904186,13.3984465 172.033953,13.2033767 172.200558,13.0384465 C172.360465,12.8751907 172.560558,12.7437488 172.77907,12.6457953 C172.998419,12.5478419 173.235349,12.5017953 173.485674,12.5017953 C173.741023,12.5017953 173.982977,12.5478419 174.211535,12.6457953 C174.437581,12.7437488 174.63014,12.8751907 174.800093,13.0384465 C174.967535,13.2033767 175.101488,13.3984465 175.202791,13.6219814 C175.304093,13.8480279 175.351814,14.0899814 175.351814,14.344493 L175.351814,14.344493 Z" id="Fill-13" fill="#FFFFFF"></path>
                    <path d="M186.155163,20.3737395 C186.069767,20.4867628 185.985209,20.5713209 185.903163,20.6324372 C185.821953,20.6960651 185.700558,20.7253674 185.546512,20.7253674 C185.396651,20.7253674 185.256,20.6809953 185.115349,20.591414 C184.978047,20.5009953 184.808093,20.4013674 184.611349,20.2883442 C184.418791,20.1744837 184.187721,20.0748558 183.921488,19.9844372 C183.650233,19.8931814 183.316186,19.8471349 182.917674,19.8471349 C182.410326,19.8471349 181.965767,19.9417395 181.586512,20.123414 C181.207256,20.3067628 180.886605,20.5713209 180.634605,20.9120651 C180.380093,21.2553209 180.193395,21.6722512 180.068651,22.1578326 C179.939721,22.643414 179.879442,23.1976465 179.879442,23.8104837 C179.879442,24.4467628 179.948093,25.0227628 180.085395,25.5150419 C180.222698,26.0165302 180.416093,26.4351349 180.670605,26.7742047 C180.930977,27.1141116 181.246605,27.3686233 181.609116,27.5427628 C181.975814,27.7160651 182.387721,27.8056465 182.849023,27.8056465 C183.310326,27.8056465 183.67786,27.7503907 183.964186,27.635693 C184.248837,27.5226698 184.487442,27.3987628 184.68,27.2614605 C184.876744,27.1249953 185.046698,27.0027628 185.190698,26.891414 C185.337209,26.7750419 185.494605,26.7214605 185.677953,26.7214605 C185.906512,26.7214605 186.086512,26.8093674 186.202884,26.987693 L187.031721,28.0392279 C186.71107,28.4151349 186.364465,28.7265767 185.991907,28.979414 C185.615163,29.2330884 185.226698,29.4373674 184.827349,29.5847163 C184.425488,29.7412744 184.012744,29.8509488 183.58493,29.9087163 C183.156279,29.9723442 182.730977,30.0016465 182.309023,30.0016465 C181.569767,30.0016465 180.873209,29.8643442 180.219349,29.5847163 C179.56214,29.311786 178.992837,28.9090884 178.505581,28.3799721 C178.021674,27.8483442 177.632372,27.2003442 177.35107,26.4351349 C177.067256,25.6665767 176.926605,24.791693 176.926605,23.8104837 C176.926605,22.9280651 177.050512,22.1151349 177.30586,21.3649953 C177.557023,20.6089953 177.928744,19.9601581 178.417674,19.4109488 C178.911628,18.8642512 179.519442,18.431414 180.242791,18.1224837 C180.968651,17.8085302 181.800837,17.6544837 182.744372,17.6544837 C183.636837,17.6544837 184.42214,17.7951349 185.098605,18.0848093 C185.772558,18.3736465 186.37786,18.7872279 186.913674,19.3255535 L186.155163,20.3737395 Z" id="Fill-14" fill="#FFFFFF"></path>
                    <path d="M196.082288,20.1742326 C196.003591,20.299814 195.922381,20.3902326 195.836986,20.4404651 C195.749079,20.4932093 195.644428,20.515814 195.509637,20.515814 C195.368986,20.515814 195.219126,20.4764651 195.058381,20.4011163 C194.898474,20.3232558 194.718474,20.2328372 194.502474,20.1365581 C194.293172,20.0386047 194.054567,19.9515349 193.78666,19.872 C193.515405,19.7966512 193.201451,19.7573023 192.834753,19.7573023 C192.265451,19.7573023 191.817544,19.8778605 191.491033,20.1189767 C191.167033,20.3609302 191.000428,20.6748837 191.000428,21.0666977 C191.000428,21.3220465 191.078288,21.5380465 191.251591,21.7130233 C191.415684,21.8863256 191.640893,22.0420465 191.918847,22.1776744 C192.193451,22.3066047 192.507405,22.432186 192.857358,22.5293023 C193.203963,22.6364651 193.563963,22.7511628 193.934009,22.8775814 C194.296521,23.0031628 194.656521,23.1404651 195.009823,23.3020465 C195.356428,23.4594419 195.667033,23.6637209 195.948335,23.9090233 C196.22294,24.1543256 196.445637,24.4473488 196.612242,24.7922791 C196.782195,25.1355349 196.866753,25.5474419 196.866753,26.0313488 C196.866753,26.6073488 196.756242,27.1381395 196.54694,27.6270698 C196.340986,28.1134884 196.032893,28.532093 195.624335,28.887907 C195.219126,29.2412093 194.718474,29.5208372 194.123219,29.7175814 C193.527963,29.9134884 192.8448,30.0147907 192.076242,30.0147907 C191.664335,30.0147907 191.258288,29.9787907 190.866474,29.900093 C190.470474,29.828093 190.094567,29.7251163 189.731219,29.5978605 C189.36787,29.4622326 189.031312,29.3065116 188.727405,29.128186 C188.425172,28.9490233 188.153079,28.7539535 187.917823,28.5413023 L188.58173,27.4428837 C188.667126,27.3106047 188.766753,27.2101395 188.883963,27.139814 C189.002009,27.067814 189.149358,27.031814 189.329358,27.031814 C189.506009,27.031814 189.675963,27.0862326 189.832521,27.1858605 C189.995777,27.2888372 190.182474,27.3985116 190.391777,27.5148837 C190.604428,27.6287442 190.84973,27.740093 191.134381,27.8413953 C191.415684,27.9426977 191.774847,27.9937674 192.216893,27.9937674 C192.5568,27.9937674 192.848149,27.9527442 193.0968,27.8690233 C193.342102,27.7894884 193.544707,27.679814 193.704614,27.5458605 C193.865358,27.416093 193.979219,27.2612093 194.054567,27.0862326 C194.129916,26.9112558 194.165916,26.7295814 194.165916,26.5445581 C194.165916,26.264093 194.080521,26.0330233 193.913916,25.8546977 C193.747312,25.6746977 193.524614,25.519814 193.250009,25.3858605 C192.972056,25.256093 192.654753,25.1372093 192.301451,25.0342326 C191.945637,24.9245581 191.585637,24.8115349 191.213079,24.6876279 C190.846381,24.5645581 190.480521,24.4146977 190.130567,24.2489302 C189.773916,24.0789767 189.456614,23.868 189.182009,23.611814 C188.907405,23.3547907 188.686381,23.0391628 188.519777,22.6649302 C188.346474,22.2898605 188.264428,21.8419535 188.264428,21.312 C188.264428,20.8197209 188.362381,20.3525581 188.557451,19.908 C188.750009,19.4642791 189.038009,19.0774884 189.417265,18.7451163 C189.793172,18.4152558 190.264521,18.1498605 190.830474,17.9539535 C191.395591,17.7513488 192.04694,17.6542326 192.788707,17.6542326 C193.613358,17.6542326 194.361823,17.788186 195.042474,18.0619535 C195.716428,18.3348837 196.281544,18.6948837 196.736149,19.1377674 L196.082288,20.1742326 Z" id="Fill-15" fill="#FFFFFF"></path>
                    <g id="Fill-16">
                        <use fill="black" fill-opacity="1" filter="url(#filter-2)" xlink:href="#path-1"></use>
                        <use fill="#F29200" fill-rule="evenodd" xlink:href="#path-1"></use>
                    </g>
                    <g id="Fill-17">
                        <use fill="black" fill-opacity="1" filter="url(#filter-4)" xlink:href="#path-3"></use>
                        <use fill="#EA5B25" fill-rule="evenodd" xlink:href="#path-3"></use>
                    </g>
                    <g id="Fill-18">
                        <use fill="black" fill-opacity="1" filter="url(#filter-6)" xlink:href="#path-5"></use>
                        <use fill="#0069B3" fill-rule="evenodd" xlink:href="#path-5"></use>
                    </g>
                    <g id="Fill-19">
                        <use fill="black" fill-opacity="1" filter="url(#filter-8)" xlink:href="#path-7"></use>
                        <use fill="#AAAA00" fill-rule="evenodd" xlink:href="#path-7"></use>
                    </g>
                    <g id="Fill-20">
                        <use fill="black" fill-opacity="1" filter="url(#filter-10)" xlink:href="#path-9"></use>
                        <use fill="#62B8E8" fill-rule="evenodd" xlink:href="#path-9"></use>
                    </g>
                    <g id="Fill-21">
                        <use fill="black" fill-opacity="1" filter="url(#filter-12)" xlink:href="#path-11"></use>
                        <use fill="#AAAA00" fill-rule="evenodd" xlink:href="#path-11"></use>
                    </g>
                </g>
            </g>
        </g>
    </g>
</svg>
