<svg xmlns="http://www.w3.org/2000/svg" width="20" height="26" viewBox="0 0 20 26">
    <g fill="none" fill-rule="evenodd" stroke="#343434" stroke-linecap="round" stroke-linejoin="round" stroke-width="2">
        <path d="M10 1c4.97 0 9 3.998 9 8.93 0 2-.663 3.848-1.783 5.336M12.813 9.93c0 1.578-1.26 2.857-2.813 2.857-1.553 0-2.813-1.28-2.813-2.857 0-1.577 1.26-2.857 2.813-2.857 1.553 0 2.813 1.28 2.813 2.857zM10 25l7.217-9.734M10 1C5.03 1 1 4.998 1 9.93c0 2 .663 3.848 1.783 5.336M10 25l-7.217-9.734"/>
    </g>
</svg>
