<svg xmlns="http://www.w3.org/2000/svg" width="120" height="36" viewBox="0 0 120 36">
    <g fill="#000" fill-rule="nonzero">
        <path d="M66.266.158L53.984 14.62l2.382 2.053 1.754-2.021h7.645V16.2h3.384V1.232L66.266.158zm-.501 11.305h-4.982l4.95-5.842v5.842h.032zM24.376 19.358L12.094 33.82l2.381 2.053 1.755-2.021h7.645V35.4h3.383V20.432l-2.882-1.074zm-.533 11.337h-4.95l4.95-5.842v5.842zM49.222.884V10.99L40.01.19l-2.882 1.074V16.2h3.384V6.032l9.243 10.8 2.85-1.074V.884zM11.78.726H3.134V16.2h8.648c4.198 0 7.645-3.41 7.645-7.8 0-4.421-3.447-7.674-7.645-7.674zM16.074 8.4c0 2.526-1.942 4.453-4.292 4.453H6.548v-8.78h5.233c2.38 0 4.292 1.8 4.292 4.327zM115.05 4.168h4.637V.821h-4.637c-4.293 0-7.645 3.379-7.645 7.705 0 4.39 3.29 7.706 7.645 7.706h4.637v-3.41h-4.637c-1.191 0-2.319-.443-3.102-1.264-.784-.79-1.19-1.895-1.19-3.063.03-2.463 1.88-4.327 4.292-4.327zM75.572 27.063c-1.003-.474-2.193-.695-3.321-.916-.47-.094-2.162-.41-2.946-.631-1.723-.474-1.973-1.042-2.036-1.2-.063-.284.063-.505.125-.632a.816.816 0 0 1 .627-.316h8.992v-3.41h-8.992c-1.285 0-2.475.6-3.29 1.61a4.106 4.106 0 0 0-.752 3.537c.564 2.306 2.726 3.127 4.324 3.569.47.126 2.632.568 3.133.663 1.003.19 1.943.347 2.632.695.439.22.595.757.501 1.2-.094.473-.438.694-1.002.694l-8.68.032h-.25v3.41l8.93-.031c2.161 0 3.853-1.326 4.292-3.348.501-2.052-.439-4.042-2.287-4.926zM100.919.853h3.384V16.2h-3.384zM35.31 2.368L32.743.126l-5.64 6.663-5.64-6.663-2.569 2.242 6.517 7.674V16.2h3.384v-6.158zM94.057.221l-8.49 10.547V1.263L82.715.19 70.527 14.432l2.57 2.242 9.086-10.642v9.726l2.914 1.042 8.49-10.547V16.2h3.384V1.263zM34.559 31.99V20.02h-3.353v15.347h11.906V31.99zM14.538 20.021H.188v3.41h5.483v11.937h3.384V23.432h5.483zM62.475 33.758l-5.796-6.821 4.355-5.148.157-.189-2.382-2.053-.156.19L49.44 30.6V19.99h-3.384v14.905l2.946 1.073 5.451-6.41 5.452 6.41z"/>
    </g>
</svg>
