<svg xmlns="http://www.w3.org/2000/svg" width="24" height="24" viewBox="0 0 24 24">
    <g fill="#8E99A8" fill-rule="nonzero">
        <path d="M17.28 0H6.587A6.594 6.594 0 0 0 0 6.587V17.28a6.594 6.594 0 0 0 6.586 6.587h10.695a6.594 6.594 0 0 0 6.587-6.587V6.587A6.594 6.594 0 0 0 17.28 0zm4.47 17.281a4.474 4.474 0 0 1-4.469 4.469H6.586a4.474 4.474 0 0 1-4.468-4.469V6.587a4.474 4.474 0 0 1 4.468-4.47h10.695a4.474 4.474 0 0 1 4.469 4.47V17.28z"/>
        <path d="M12.15 6A6.157 6.157 0 0 0 6 12.15a6.157 6.157 0 0 0 6.15 6.15 6.157 6.157 0 0 0 6.15-6.15A6.157 6.157 0 0 0 12.15 6zm0 10.182a4.037 4.037 0 0 1-4.032-4.032 4.037 4.037 0 0 1 4.032-4.032 4.037 4.037 0 0 1 4.032 4.032 4.037 4.037 0 0 1-4.032 4.032zM18.553 4a1.56 1.56 0 0 0-1.097.455A1.56 1.56 0 0 0 17 5.553c0 .408.167.809.456 1.098.288.288.689.455 1.097.455.41 0 .809-.167 1.098-.455.29-.29.455-.69.455-1.098 0-.41-.165-.81-.455-1.098A1.56 1.56 0 0 0 18.553 4z"/>
    </g>
</svg>
