<svg xmlns="http://www.w3.org/2000/svg" width="24" height="24" viewBox="0 0 24 24">
    <path fill="#8E99A8" fill-rule="nonzero" d="M23.849 12.87a2.132 2.132 0 0 0-2.69-1.373l-2.149.701-1.46-4.5 2.15-.7a2.138 2.138 0 0 0-1.319-4.067l-2.15.7-.699-2.154A2.131 2.131 0 0 0 12.845.105a2.138 2.138 0 0 0-1.37 2.694l.7 2.154-4.492 1.462-.698-2.154A2.132 2.132 0 0 0 4.297 2.89a2.136 2.136 0 0 0-1.37 2.692l.699 2.156-2.219.723a2.138 2.138 0 0 0-1.323 2.601c.326 1.134 1.528 1.825 2.64 1.464l2.22-.723 1.46 4.5-2.22.723a2.14 2.14 0 0 0-1.323 2.601c.326 1.134 1.529 1.827 2.64 1.464l2.221-.723.722 2.223a2.134 2.134 0 0 0 2.596 1.326c1.131-.327 1.823-1.532 1.46-2.646l-.72-2.223c1.468-.477 3.028-.986 4.492-1.463l.721 2.223a2.134 2.134 0 0 0 2.596 1.326c1.132-.327 1.824-1.531 1.461-2.646-.003-.009-.285-.882-.721-2.223l2.15-.7a2.14 2.14 0 0 0 1.37-2.694zm-13.387 2.112c-.478-1.47-.984-3.033-1.46-4.5l4.491-1.463 1.46 4.5-4.491 1.463z"/>
</svg>
