<svg xmlns="http://www.w3.org/2000/svg" width="24" height="20" viewBox="0 0 24 20">
    <path fill="#8E99A8" fill-rule="evenodd" d="M23.338.37a9.68 9.68 0 0 1-3.129 1.223A4.857 4.857 0 0 0 16.615 0c-2.717 0-4.922 2.26-4.922 5.049 0 .396.043.78.127 1.15C7.728 5.987 4.1 3.98 1.67.92a5.14 5.14 0 0 0-.666 2.542 5.08 5.08 0 0 0 2.191 4.202 4.834 4.834 0 0 1-2.232-.63v.062c0 2.447 1.698 4.489 3.952 4.95a4.798 4.798 0 0 1-2.224.088c.626 2.006 2.444 3.467 4.599 3.506A9.723 9.723 0 0 1 0 17.733 13.706 13.706 0 0 0 7.548 20c9.058 0 14.01-7.692 14.01-14.365 0-.22-.005-.439-.013-.654.962-.712 1.798-1.6 2.455-2.613a9.644 9.644 0 0 1-2.827.794A5.04 5.04 0 0 0 23.338.37"/>
</svg>
