<?xml version="1.0" encoding="UTF-8"?>
<svg width="197px" height="36px" viewBox="0 0 197 36" version="1.1" xmlns="http://www.w3.org/2000/svg" xmlns:xlink="http://www.w3.org/1999/xlink">
    <defs></defs>
    <g id="Grid-DevOps-In-UA" stroke="none" stroke-width="1" fill-rule="evenodd">
        <g id="DevOps-In-UA-Cyan" transform="translate(-132.000000, -1636.000000)">
            <g id="3rd" transform="translate(-10.000000, 1584.000000)">
                <g id="Grid_Dynamics__Logo_white-(1)" transform="translate(142.000000, 52.000000)">
                    <path d="M55.7215726,28.0492435 C56.4278299,28.0492435 57.0466224,27.9838434 57.5730456,27.8563134 C58.0961992,27.7287834 58.5972822,27.5522034 59.0746598,27.3241209 L59.0746598,24.2535908 L56.9583402,24.2535908 C56.7556183,24.2535908 56.5945851,24.1971833 56.4801452,24.0868208 C56.3624357,23.9699183 56.3035809,23.8325783 56.3035809,23.6690783 L56.3035809,21.8910157 L61.9266639,21.8910157 L61.9266639,28.7261335 C61.4950622,29.040871 61.0503817,29.309011 60.5893527,29.541181 C60.1242365,29.768446 59.6305104,29.963011 59.1040871,30.106891 C58.5776639,30.254041 58.0111867,30.366856 57.4160996,30.440431 C56.8169253,30.5148235 56.1695228,30.5507935 55.4730747,30.5507935 C54.2436639,30.5507935 53.111527,30.337426 52.0742116,29.9098735 C51.0377137,29.479051 50.1409959,28.885546 49.3824232,28.1179135 C48.63039,27.3584559 48.0410249,26.4444909 47.6159627,25.3866459 C47.1909004,24.3296183 46.9783693,23.1695858 46.9783693,21.9155407 C46.9783693,20.6451457 47.1876307,19.4769382 47.5996141,18.4199106 C48.0115975,17.3587956 48.5976929,16.4472831 49.3595353,15.685373 C50.1148382,14.921828 51.0377137,14.3291405 52.1199876,13.9089455 C53.2030788,13.4871155 54.4194108,13.2778355 55.7640788,13.2778355 C57.1447137,13.2778355 58.3381577,13.4838455 59.3493154,13.8925955 C60.3572033,14.3013455 61.2105975,14.833538 61.9103154,15.487538 L61.0013361,16.9124406 C60.8247718,17.2002006 60.5893527,17.3440806 60.2885394,17.3440806 C60.0980788,17.3440806 59.9117054,17.2835856 59.7187925,17.1568731 C59.4670249,17.0080881 59.2119876,16.8633906 58.9536805,16.7154231 C58.6912863,16.5650031 58.4035519,16.4374731 58.0831203,16.3279281 C57.7724979,16.2183831 57.4160996,16.128458 57.0237344,16.058153 C56.6305519,15.987848 56.1760622,15.956783 55.6594481,15.956783 C54.8256722,15.956783 54.0728216,16.094123 53.3959917,16.3753431 C52.7257012,16.6532931 52.1526846,17.0538681 51.6785768,17.5795206 C51.2011992,18.1010856 50.8341743,18.7256556 50.5766846,19.4589532 C50.3216473,20.1922507 50.1933112,21.0097507 50.1933112,21.9155407 C50.1933112,22.8891833 50.330639,23.7573683 50.6020249,24.5200958 C50.8742282,25.2721959 51.2567842,25.9180209 51.7472407,26.4387684 C52.2409668,26.9603334 52.8237925,27.3584559 53.4973527,27.6355884 C54.1774523,27.9119034 54.9204938,28.0492435 55.7215726,28.0492435" id="Fill-1"></path>
                    <path d="M64.5269004,30.363586 L64.5269004,18.3741306 L66.2214274,18.3741306 C66.5165187,18.3741306 66.7225104,18.4280856 66.8402199,18.5376306 C66.9579295,18.6455406 67.0364025,18.8335656 67.075639,19.0976181 L67.2489336,20.5494982 C67.6772656,19.8088432 68.1808008,19.2218782 68.753,18.7926906 C69.332556,18.3643206 69.9799585,18.1501356 70.6960249,18.1501356 C71.2878423,18.1501356 71.7758465,18.2874756 72.1714813,18.5588856 L71.792195,20.7228082 C71.7693071,20.8642357 71.7202614,20.9598832 71.6450581,21.0211957 C71.5633154,21.0800557 71.4619544,21.1062157 71.3278963,21.1062157 C71.2101867,21.1062157 71.049971,21.0816907 70.8497012,21.0269182 C70.6437095,20.9705107 70.3755934,20.9459857 70.042083,20.9459857 C69.4437261,20.9459857 68.9303817,21.1111207 68.4979627,21.4397557 C68.0696307,21.7716607 67.7099627,22.2572558 67.4124191,22.8965408 L67.4124191,30.363586 L64.5269004,30.363586" id="Fill-2"></path>
                    <path d="M73.712332,30.363586 L76.6011203,30.363586 L76.6011203,18.3741306 L73.712332,18.3741306 L73.712332,30.363586 Z M77.0286349,14.8785005 C77.0286349,15.129473 76.9795892,15.363278 76.8782282,15.582368 C76.7768672,15.798188 76.6460788,15.987848 76.4793237,16.154618 C76.3092988,16.3164831 76.1098465,16.4472831 75.8875062,16.5453831 C75.6618963,16.6426656 75.4199378,16.6917156 75.1616307,16.6917156 C74.9131328,16.6917156 74.6768963,16.6426656 74.4553734,16.5453831 C74.2322158,16.4472831 74.0393029,16.3164831 73.8758174,16.154618 C73.712332,15.987848 73.5848133,15.798188 73.486722,15.582368 C73.3886307,15.363278 73.3395851,15.129473 73.3395851,14.8785005 C73.3395851,14.6201705 73.3886307,14.380643 73.486722,14.1591005 C73.5848133,13.9285655 73.712332,13.7340005 73.8758174,13.5688655 C74.0393029,13.4053655 74.2322158,13.2745655 74.4553734,13.1764654 C74.6768963,13.0783654 74.9131328,13.0342204 75.1616307,13.0342204 C75.4199378,13.0342204 75.6618963,13.0783654 75.8875062,13.1764654 C76.1098465,13.2745655 76.3092988,13.4053655 76.4793237,13.5688655 C76.6460788,13.7340005 76.7768672,13.9285655 76.8782282,14.1591005 C76.9795892,14.380643 77.0286349,14.6201705 77.0286349,14.8785005 L77.0286349,14.8785005 Z" id="Fill-3"></path>
                    <path d="M84.0683195,28.2487135 C84.6666763,28.2487135 85.1775685,28.1260885 85.5960913,27.8742984 C86.0178838,27.6274134 86.4135187,27.2742534 86.7895353,26.8099134 L86.7895353,21.4364857 C86.4625643,21.0391807 86.106166,20.7555082 85.7170705,20.5944607 C85.3345145,20.4293257 84.9151743,20.3483932 84.4704938,20.3483932 C84.0356224,20.3483932 83.6432573,20.4293257 83.2901286,20.5944607 C82.9337303,20.7555082 82.6353693,21.0032107 82.3868714,21.3351157 C82.1416432,21.6702907 81.9552697,22.0872157 81.8212116,22.5989708 C81.6904232,23.1099083 81.6217593,23.7107708 81.6217593,24.4048283 C81.6217593,25.1070609 81.6806141,25.6989309 81.7917842,26.1845259 C81.9062241,26.6766609 82.0664398,27.0698784 82.2757012,27.3772584 C82.4849627,27.6862734 82.7432697,27.9086334 83.0481701,28.0443385 C83.3522531,28.1784085 83.6923029,28.2487135 84.0683195,28.2487135 Z M87.9118631,30.363586 C87.5358465,30.363586 87.293888,30.191911 87.1761784,29.837116 L86.9374896,28.681171 C86.6881743,28.959121 86.4298672,29.217451 86.1552116,29.441446 C85.8838257,29.665441 85.5895519,29.860006 85.2789295,30.023506 C84.9617676,30.191911 84.6176307,30.3153535 84.2579627,30.407731 C83.8982946,30.494386 83.5059295,30.536896 83.0841369,30.536896 C82.4293776,30.536896 81.827751,30.404461 81.2817095,30.133051 C80.7381203,29.860006 80.2672822,29.461066 79.874917,28.946041 C79.4825519,28.4252935 79.1784689,27.7876434 78.9659378,27.0200109 C78.7493195,26.2589184 78.6422365,25.3866459 78.6422365,24.4048283 C78.6422365,23.5153883 78.7623983,22.6913483 79.0043568,21.9302557 C79.2471328,21.1650757 79.5904523,20.5012657 80.0449419,19.9429132 C80.4928921,19.3788382 81.039751,18.9390231 81.6675353,18.6226506 C82.2985892,18.3120006 83.0048465,18.1501356 83.7969336,18.1501356 C84.4672241,18.1501356 85.0402407,18.2596806 85.5110788,18.4705956 C85.9884564,18.6888681 86.4135187,18.9733581 86.7895353,19.3314232 L86.7895353,12.9982504 L89.6717842,12.9982504 L89.6717842,30.363586 L87.9118631,30.363586 L87.9118631,30.363586 Z" id="Fill-4"></path>
                    <path d="M110.445066,21.9122707 C110.445066,20.9852257 110.321635,20.1521932 110.069867,19.4164432 C109.824639,18.6815106 109.468241,18.0585756 109.007212,17.5468206 C108.548635,17.0367006 107.989515,16.6443006 107.332303,16.3753431 C106.671004,16.102298 105.93205,15.964958 105.104813,15.964958 L101.82039,15.964958 L101.82039,27.8612184 L105.104813,27.8612184 C105.93205,27.8612184 106.671004,27.7255134 107.332303,27.4541034 C107.989515,27.1794234 108.548635,26.7862059 109.007212,26.2760859 C109.468241,25.7708709 109.824639,25.1430309 110.069867,24.4064633 C110.321635,23.6723483 110.445066,22.8401333 110.445066,21.9122707 Z M113.654286,21.9122707 C113.654286,23.1524183 113.448295,24.2895608 113.039581,25.3261509 C112.627598,26.3619234 112.044772,27.2562684 111.299278,28.002646 C110.550515,28.753111 109.651344,29.331901 108.598498,29.743921 C107.544017,30.155941 106.380817,30.363586 105.104813,30.363586 L98.6536763,30.363586 L98.6536763,13.4658605 L105.104813,13.4658605 C106.380817,13.4658605 107.544017,13.6735055 108.598498,14.0887955 C109.651344,14.5073555 110.550515,15.086963 111.299278,15.830888 C112.044772,16.5756306 112.627598,17.4667056 113.039581,18.4983906 C113.448295,19.5374332 113.654286,20.6745757 113.654286,21.9122707 L113.654286,21.9122707 Z" id="Fill-5"></path>
                    <path d="M120.098884,33.6581111 C120.013054,33.8633036 119.899432,34.0145412 119.762104,34.1216337 C119.628046,34.2246387 119.417967,34.2810462 119.140041,34.2810462 L116.987755,34.2810462 L119.231593,29.472511 L114.384249,18.3724956 L116.90683,18.3724956 C117.141432,18.3724956 117.318813,18.4248156 117.443062,18.5351781 C117.570581,18.6455406 117.661315,18.7689831 117.724257,18.9104106 L120.28444,25.1266809 C120.37027,25.3310559 120.442203,25.5419709 120.507598,25.7569734 C120.566452,25.9768809 120.62449,26.1951534 120.667813,26.4150609 C120.733207,26.1845259 120.798602,25.9687059 120.873805,25.7569734 C120.949008,25.5485109 121.024212,25.3326909 121.112494,25.1144184 L123.519817,18.9104106 C123.582759,18.7542681 123.68739,18.6275556 123.83371,18.5212806 C123.974307,18.4231806 124.13861,18.3724956 124.315174,18.3724956 L126.630946,18.3724956 L120.098884,33.6581111" id="Fill-6"></path>
                    <path d="M127.978884,30.363586 L127.978884,18.3724956 L129.742075,18.3724956 C130.118091,18.3724956 130.366589,18.5458056 130.476942,18.8956956 L130.680481,19.8448132 C130.91917,19.5979282 131.175025,19.3673932 131.443141,19.1695582 C131.711257,18.9627306 131.995722,18.7910556 132.296535,18.6390006 C132.597349,18.4934856 132.915328,18.3806706 133.258647,18.3038256 C133.601149,18.2220756 133.977983,18.1861056 134.383427,18.1861056 C135.037369,18.1861056 135.616108,18.2956506 136.12373,18.5188281 C136.630535,18.7403706 137.052328,19.0510206 137.392378,19.4524132 C137.729975,19.8587107 137.988282,20.3361307 138.161577,20.8928482 C138.338141,21.4479307 138.426423,22.0610557 138.426423,22.7330408 L138.426423,30.363586 L135.540905,30.363586 L135.540905,22.7330408 C135.540905,21.9989257 135.37088,21.4315807 135.030012,21.0310057 C134.693232,20.6304307 134.183975,20.4293257 133.506328,20.4293257 C133.006062,20.4293257 132.538494,20.5437757 132.103622,20.7661357 C131.667934,20.9942182 131.25595,21.3024157 130.863585,21.6915457 L130.863585,30.363586 L127.978884,30.363586" id="Fill-7"></path>
                    <path d="M144.585739,28.5626335 C144.879195,28.5626335 145.154668,28.538926 145.403166,28.4841535 C145.652481,28.4285635 145.8879,28.3484485 146.110241,28.239721 C146.332581,28.135081 146.547564,28.001011 146.753556,27.8448684 C146.960365,27.6862734 147.169627,27.5031534 147.376436,27.2856984 L147.376436,25.2803709 C146.535303,25.2803709 145.835585,25.3310559 145.269108,25.4389659 C144.706718,25.5436059 144.252228,25.6776759 143.908909,25.8460809 C143.565589,26.0095809 143.322813,26.2008759 143.178946,26.4216009 C143.035079,26.6415084 142.963963,26.8802184 142.963963,27.1369134 C142.963963,27.6486684 143.110282,28.0149085 143.411095,28.236451 C143.709456,28.4530885 144.101822,28.5626335 144.585739,28.5626335 Z M150.199012,30.363586 L148.896033,30.363586 C148.621378,30.363586 148.412934,30.322711 148.255988,30.240961 C148.099041,30.157576 147.984602,29.992441 147.902859,29.743921 L147.647822,28.890451 C147.342921,29.163496 147.049465,29.405476 146.753556,29.608216 C146.463369,29.817496 146.159286,29.987536 145.848664,30.133051 C145.533954,30.270391 145.203714,30.373396 144.857124,30.4445185 C144.503996,30.5148235 144.1149,30.5507935 143.685751,30.5507935 C143.178946,30.5507935 142.711378,30.4821235 142.286315,30.3447835 C141.857166,30.204991 141.485237,30.003886 141.177066,29.729206 C140.872983,29.454526 140.631025,29.116081 140.461,28.708966 C140.287705,28.303486 140.202693,27.8309709 140.202693,27.2889684 C140.202693,26.8393434 140.322855,26.3897184 140.559091,25.9441809 C140.80105,25.5060009 141.190145,25.1070609 141.745996,24.7506308 C142.302664,24.3950183 143.035079,24.1007183 143.957137,23.8669133 C144.875925,23.6331083 146.011332,23.5137533 147.376436,23.5137533 L147.376436,22.8090683 C147.376436,21.9989257 147.205593,21.4021507 146.872083,21.0130207 C146.532033,20.6214382 146.038307,20.4293257 145.390087,20.4293257 C144.925788,20.4293257 144.535876,20.4840982 144.226071,20.5944607 C143.912178,20.7040057 143.640793,20.8241782 143.411095,20.9598832 C143.178946,21.0980407 142.969685,21.2190307 142.776772,21.3293932 C142.580589,21.4381207 142.361519,21.4969807 142.131822,21.4969807 C141.932369,21.4969807 141.769701,21.4397557 141.632373,21.3416557 C141.488506,21.2419207 141.376519,21.1160257 141.292324,20.9672407 L140.765083,20.0442832 C142.145718,18.7812456 143.80673,18.1501356 145.753842,18.1501356 C146.45356,18.1501356 147.081344,18.2645856 147.631473,18.4951206 C148.184054,18.7240206 148.648353,19.0436631 149.024369,19.4524132 C149.406925,19.8660682 149.69466,20.3483932 149.897382,20.9222782 C150.096834,21.4888057 150.199012,22.1125583 150.199012,22.7927183 L150.199012,30.363586 L150.199012,30.363586 Z" id="Fill-8"></path>
                    <path d="M152.724046,30.363586 L152.724046,18.3724956 L154.483967,18.3724956 C154.859166,18.3724956 155.101942,18.5458056 155.220469,18.8956956 L155.409295,19.7892232 C155.615286,19.5505132 155.838444,19.3395982 156.070593,19.1433981 C156.299473,18.9480156 156.541432,18.7812456 156.802191,18.6390006 C157.064585,18.4983906 157.34251,18.3888456 157.644141,18.3070956 C157.948224,18.2269806 158.274378,18.1861056 158.632411,18.1861056 C159.386896,18.1861056 160.011411,18.3888456 160.499415,18.7959606 C160.986602,19.2055282 161.349539,19.7532532 161.589046,20.4293257 C161.777871,20.0320207 162.010021,19.6903057 162.291216,19.4082682 C162.573228,19.1205081 162.880581,18.8899731 163.214091,18.7109406 C163.550871,18.5310906 163.904,18.4002906 164.284104,18.3152706 C164.66012,18.2286156 165.038589,18.1861056 165.421963,18.1861056 C166.083261,18.1861056 166.675079,18.2874756 167.184336,18.4902156 C167.698498,18.6896856 168.130917,18.9897081 168.484046,19.3788382 C168.837174,19.7663332 169.102021,20.2437532 169.285942,20.8037407 C169.468228,21.3645457 169.557328,22.0079182 169.557328,22.7330408 L169.557328,30.363586 L166.675079,30.363586 L166.675079,22.7330408 C166.675079,21.9662257 166.504237,21.3923407 166.167456,21.0064807 C165.833946,20.6198032 165.34349,20.4293257 164.696087,20.4293257 C164.401813,20.4293257 164.127158,20.4808282 163.87539,20.5821982 C163.619535,20.6811157 163.398012,20.8299007 163.207552,21.0195607 C163.017909,21.2092207 162.867502,21.4495657 162.758784,21.7365082 C162.645162,22.0267207 162.596116,22.3569908 162.596116,22.7330408 L162.596116,30.363586 L159.694249,30.363586 L159.694249,22.7330408 C159.694249,21.9302557 159.534033,21.3432907 159.212784,20.9786857 C158.886631,20.6108107 158.411705,20.4293257 157.781469,20.4293257 C157.366216,20.4293257 156.979573,20.5339657 156.616635,20.7399757 C156.25288,20.9459857 155.919369,21.2280232 155.602207,21.5852707 L155.602207,30.363586 L152.724046,30.363586" id="Fill-9"></path>
                    <path d="M172.118328,30.363586 L175.006299,30.363586 L175.006299,18.3724956 L172.118328,18.3724956 L172.118328,30.363586 Z M175.434631,14.8752305 C175.434631,15.129473 175.389672,15.363278 175.287494,15.577463 C175.186133,15.798188 175.052075,15.987848 174.884502,16.149713 C174.715295,16.3164831 174.522382,16.4440131 174.296772,16.5412956 C174.067075,16.6385781 173.825116,16.6876281 173.570896,16.6876281 C173.318311,16.6876281 173.082075,16.6385781 172.863822,16.5412956 C172.644751,16.4440131 172.445299,16.3164831 172.285083,16.149713 C172.118328,15.987848 171.986722,15.798188 171.8919,15.577463 C171.793809,15.363278 171.744763,15.129473 171.744763,14.8752305 C171.744763,14.6201705 171.793809,14.3781905 171.8919,14.1525605 C171.986722,13.9285655 172.118328,13.7340005 172.285083,13.5688655 C172.445299,13.4053655 172.644751,13.2745655 172.863822,13.1764654 C173.082075,13.0783654 173.318311,13.0325854 173.570896,13.0325854 C173.825116,13.0325854 174.067075,13.0783654 174.296772,13.1764654 C174.522382,13.2745655 174.715295,13.4053655 174.884502,13.5688655 C175.052075,13.7340005 175.186133,13.9285655 175.287494,14.1525605 C175.389672,14.3781905 175.434631,14.6201705 175.434631,14.8752305 L175.434631,14.8752305 Z" id="Fill-10"></path>
                    <path d="M186.242656,20.9067457 C186.156826,21.0195607 186.071813,21.1045807 185.990071,21.1650757 C185.909145,21.2280232 185.787349,21.2582707 185.63449,21.2582707 C185.483266,21.2582707 185.341851,21.2141257 185.201253,21.1242007 C185.063925,21.0342757 184.894718,20.9345407 184.698535,20.8209082 C184.505622,20.7072757 184.272656,20.6075407 184.007809,20.5167982 C183.735606,20.4252382 183.402913,20.3794582 183.004008,20.3794582 C182.497203,20.3794582 182.051705,20.4751057 181.672419,20.6557732 C181.293133,20.8397107 180.972701,21.1045807 180.720116,21.4446607 C180.465896,21.7880107 180.279523,22.2057533 180.155274,22.6913483 C180.023668,23.1769433 179.964813,23.7312083 179.964813,24.3443333 C179.964813,24.9803483 180.033477,25.5566859 180.170805,26.0488209 C180.308133,26.5507659 180.501046,26.9701434 180.7569,27.3085884 C181.015207,27.6486684 181.332369,27.9037284 181.695307,28.0770385 C182.061515,28.2503485 182.474315,28.341091 182.935344,28.341091 C183.395556,28.341091 183.763398,28.2846835 184.050315,28.171051 C184.33478,28.0574185 184.574286,27.9339759 184.767199,27.7958184 C184.963382,27.6601134 185.132589,27.5374884 185.276456,27.4263084 C185.424411,27.3102234 185.581357,27.2562684 185.765278,27.2562684 C185.99334,27.2562684 186.173992,27.3445584 186.288432,27.5227734 L187.118938,28.574896 C186.798506,28.950946 186.451917,29.261596 186.078353,29.515021 C185.703154,29.768446 185.313241,29.972821 184.914336,30.119971 C184.512162,30.2777485 184.100178,30.3872935 183.671029,30.4445185 C183.242697,30.507466 182.817635,30.536896 182.395025,30.536896 C181.656071,30.536896 180.959622,30.399556 180.304863,30.119971 C179.647651,29.846926 179.078722,29.444716 178.591535,28.914976 C178.106801,28.3827835 177.717705,27.7353234 177.435693,26.9701434 C177.152046,26.2008759 177.011448,25.3261509 177.011448,24.3443333 C177.011448,23.4614333 177.135697,22.6488383 177.391552,21.8975557 C177.642502,21.1421857 178.012797,20.4922732 178.502436,19.9429132 C178.997797,19.3968232 179.605963,18.9627306 180.328568,18.6545331 C181.053627,18.3397956 181.885768,18.1861056 182.830714,18.1861056 C183.723344,18.1861056 184.508892,18.3267156 185.185722,18.6161106 C185.859282,18.9063231 186.464178,19.3191607 187.001228,19.8587107 L186.242656,20.9067457" id="Fill-11"></path>
                    <path d="M196.169494,20.7072757 C196.091838,20.8331707 196.009278,20.9222782 195.924266,20.9737807 C195.835983,21.0252832 195.731353,21.0489907 195.597295,21.0489907 C195.45588,21.0489907 195.30629,21.0097507 195.146075,20.9345407 C194.985041,20.8552432 194.805207,20.7661357 194.589407,20.6696707 C194.380145,20.5715707 194.142274,20.4840982 193.874158,20.4048007 C193.602772,20.3295907 193.288062,20.2895332 192.921855,20.2895332 C192.352108,20.2895332 191.904158,20.4105232 191.577187,20.6508682 C191.253485,20.8928482 191.08673,21.2075857 191.08673,21.6008032 C191.08673,21.8550457 191.164386,22.0716832 191.338498,22.2466283 C191.501166,22.4191208 191.728411,22.5752633 192.006336,22.7109683 C192.280992,22.8401333 192.594066,22.9652108 192.944743,23.0624933 C193.291332,23.1695858 193.650183,23.2848533 194.021295,23.4107483 C194.383415,23.5366433 194.7439,23.6739833 195.097029,23.8358483 C195.443618,23.9928083 195.755058,24.1971833 196.035436,24.4424333 C196.310091,24.6885008 196.532432,24.9803483 196.700004,25.3261509 C196.870029,25.6695009 196.955041,26.0815209 196.955041,26.5662984 C196.955041,27.1418184 196.843871,27.6731934 196.63461,28.1620585 C196.428618,28.648471 196.120448,29.0662135 195.711734,29.423461 C195.30629,29.776621 194.805207,30.056206 194.210938,30.2532235 C193.615033,30.4494235 192.931664,30.5507935 192.162465,30.5507935 C191.750481,30.5507935 191.345037,30.5148235 190.952672,30.435526 C190.55622,30.363586 190.180203,30.260581 189.817266,30.133051 C189.455145,29.997346 189.117548,29.8428385 188.812647,29.663806 C188.512651,29.483956 188.240448,29.289391 188.005029,29.076841 L188.669598,27.9773034 C188.753793,27.8448684 188.852701,27.7451334 188.970411,27.6748284 C189.087303,27.6028884 189.235257,27.5669184 189.415091,27.5669184 C189.592473,27.5669184 189.76168,27.6208734 189.919444,27.7206084 C190.082112,27.8236134 190.269303,27.9339759 190.478564,28.0492435 C190.690278,28.1636935 190.936324,28.275691 191.220788,28.377061 C191.501166,28.478431 191.862469,28.5282985 192.303062,28.5282985 C192.643112,28.5282985 192.934934,28.4874235 193.182614,28.404856 C193.42866,28.3239235 193.631382,28.2143785 193.791598,28.0803085 C193.952631,27.9511434 194.066253,27.7958184 194.142274,27.6208734 C194.217477,27.4459284 194.252627,27.2644434 194.252627,27.0796884 C194.252627,26.7984684 194.167614,26.5679334 194.000859,26.3897184 C193.834104,26.2090509 193.612581,26.0537259 193.337925,25.9196559 C193.059183,25.7913084 192.742021,25.6711359 192.388075,25.5681309 C192.031676,25.4585859 191.672008,25.3457709 191.298444,25.2215109 C190.933054,25.0988859 190.566029,24.9476483 190.21617,24.7833308 C189.860589,24.6124733 189.54261,24.4015583 189.267954,24.1456808 C188.993299,23.8881683 188.774228,23.5726133 188.606656,23.1981983 C188.434178,22.8237833 188.351618,22.3757933 188.351618,21.8452357 C188.351618,21.3531007 188.450527,20.8854907 188.642622,20.4407707 C188.836353,19.9976857 189.124087,19.6093732 189.503373,19.2774682 C189.87939,18.9463806 190.350228,18.6815106 190.916705,18.4853106 C191.482365,18.2825706 192.133855,18.1861056 192.876079,18.1861056 C193.700046,18.1861056 194.448809,18.3201756 195.129726,18.5932206 C195.803286,18.8662656 196.369763,19.2267832 196.824253,19.6698682 L196.169494,20.7072757" id="Fill-12"></path>
                    <g id="Group-16" transform="translate(7.356846, 0.000000)">
                        <path d="M28.2674564,18.7787931 C26.476473,10.2882378 17.437361,2.27346758 10.6330954,0.739837525 C10.0200249,1.09299754 9.51485477,1.61701505 9.18052697,2.02821757 C12.726527,2.76151509 15.9422863,5.32110768 19.5798382,9.21731281 C22.7032282,12.5666104 24.7958423,17.9179656 25.3083693,23.5570808 C25.5151784,25.7880384 25.4726722,28.063141 25.1530581,30.278566 C28.3802614,26.7453309 29.1004149,22.7117858 28.2674564,18.7787931" id="Fill-13"></path>
                        <path d="M24.1508921,24.6329108 C18.7166349,29.2509685 9.17889212,31.7868536 0.0188008299,30.427351 C0.219887967,32.0942336 0.783095436,34.0987437 2.26100415,35.9471112 C9.42984232,36.1817337 19.2986432,34.5794337 23.7863195,31.4614886 C24.1999378,28.753111 24.2326349,26.3848134 24.1508921,24.6329108" id="Fill-15"></path>
                    </g>
                    <path d="M17.5011203,8.03030277 C20.9588382,8.9630703 23.7372739,13.3007255 19.6910083,19.1147856 C20.6923568,20.5691182 22.6141286,22.9627583 24.8988382,23.9339483 C26.9432241,19.9617157 27.1557552,14.0430155 25.0051037,10.6234129 C22.4988714,6.90624023 18.0749544,6.57106522 14.5943485,8.05482777 C14.5968008,8.06709027 14.5984357,8.08180527 14.6000705,8.09488527 C15.5303029,7.78832276 16.5398257,7.76788526 17.5011203,8.03030277" id="Fill-17"></path>
                    <g id="Group-22">
                        <path d="M14.6393071,8.45622029 C14.7161452,9.10613281 14.8256805,9.87948784 14.9728174,10.6258654 C15.7052324,9.80836533 16.4384647,9.05054281 17.1479917,8.36793028 C16.1956888,8.15619778 15.3112324,8.26901278 14.6393071,8.45622029" id="Fill-18"></path>
                        <path d="M23.9318216,24.9460133 C22.1735353,24.1996358 20.3915436,22.4665358 18.8310747,20.2453882 C16.9714274,17.5909656 15.4289419,14.2261355 14.6474813,10.9912879 C14.4463942,10.1770578 14.3098838,9.37672532 14.2142448,8.59029029 C14.201166,8.47502279 14.178278,8.35648528 14.1684689,8.24367028 L14.1684689,8.24121778 C13.9044398,5.71514269 14.2404025,3.43513512 15.3962448,1.85082006 C15.771444,1.33252505 16.2332905,0.88862253 16.7932282,0.533010018 L16.7932282,0.531375018 C14.7145104,0.29675251 12.9153527,0.762727526 11.724361,2.13449257 L11.7194564,2.13449257 C10.8170166,3.17271761 10.2521743,4.72433266 10.1745187,6.88171523 C10.0290166,7.98615777 9.9186639,9.55984532 9.89904564,11.3624329 C9.8826971,13.1216929 9.95871784,15.0926855 10.1761535,17.0644956 C11.0066598,24.5339933 13.9191535,31.9479011 21.9234025,27.3233034 C22.8299295,26.7976509 23.6179295,25.9989534 24.2677842,25.0277633 L23.9318216,24.9460133" id="Fill-20"></path>
                        <path d="M6.17239419,30.2385085 C5.8773029,26.4461259 7.24485892,22.3275608 9.33502075,18.5188281 C9.12575934,16.4677206 9.06036515,13.9759805 9.0440166,12.1946479 C5.04516183,16.2584406 0.621244813,23.1605933 0.0604896266,28.453906 C-0.255037344,31.4108036 0.635958506,33.8641211 3.48796266,35.0364162 C4.68222407,35.4615162 6.29827801,35.7370137 8.16201245,35.8735362 L8.16201245,35.8702662 C6.94895021,34.1420712 6.32770539,32.2356611 6.17239419,30.2385085" id="Fill-21"></path>
                    </g>
                </g>
            </g>
        </g>
    </g>
</svg>